<svg width="102" height="102" viewBox="0 0 102 102" fill="none" xmlns="http://www.w3.org/2000/svg">
<path d="M49.9995 100.997C49.6679 100.995 49.3383 100.991 49.0107 100.987L49.0039 101.487C48.3385 101.478 47.681 101.464 47.0313 101.446L47.0453 100.946C46.7122 100.937 46.3813 100.926 46.0524 100.915L46.0345 101.414C45.3702 101.391 44.7143 101.362 44.0667 101.328L44.0928 100.829C43.7589 100.811 43.4272 100.792 43.0977 100.772L43.0671 101.271C42.4035 101.23 41.7488 101.184 41.1029 101.132L41.1429 100.634C40.8089 100.607 40.4773 100.579 40.148 100.549L40.1029 101.047C39.4398 100.987 38.7862 100.921 38.142 100.848L38.1978 100.352C37.8647 100.314 37.5342 100.275 37.2062 100.234L37.1445 100.73C36.4822 100.648 35.83 100.559 35.1879 100.462L35.262 99.9679C34.931 99.9183 34.6028 99.8668 34.2773 99.8135L34.1965 100.307C33.5358 100.199 32.886 100.083 32.2471 99.9589L32.3422 99.468C32.0148 99.4046 31.6903 99.3391 31.3688 99.2716L31.266 99.7609C30.6086 99.6228 29.9631 99.476 29.3292 99.3204L29.4484 98.8348C29.1263 98.7557 28.8072 98.6744 28.4913 98.5907L28.3633 99.0741C27.712 98.9016 27.0734 98.7194 26.4474 98.5273L26.5941 98.0493C26.2792 97.9526 25.9676 97.8535 25.6592 97.7518L25.5026 98.2266C24.8612 98.015 24.2334 97.7924 23.6191 97.5587L23.7969 97.0914C23.4892 96.9743 23.185 96.8544 22.8843 96.7317L22.6954 97.1946C22.0712 96.9398 21.4616 96.6729 20.8663 96.3936L21.0787 95.9409C20.7775 95.7996 20.48 95.655 20.1864 95.5072L19.9616 95.9539C19.3597 95.651 18.7732 95.3347 18.2018 95.0047L18.4519 94.5717C18.1659 94.4065 17.8838 94.2379 17.6056 94.0658L17.3425 94.491C16.7698 94.1366 16.2132 93.7676 15.6724 93.3838L15.9618 92.976C15.6934 92.7856 15.4291 92.5914 15.1687 92.3935L14.8661 92.7915C14.3315 92.3851 13.8132 91.9631 13.311 91.5253L13.6396 91.1485C13.3912 90.9319 13.147 90.7115 12.9067 90.4872L12.5654 90.8526C12.0765 90.3961 11.6039 89.9235 11.1474 89.4346L11.5129 89.0933C11.2885 88.8531 11.0681 88.6088 10.8516 88.3604L10.4747 88.689C10.0369 88.1868 9.61491 87.6685 9.20849 87.1339L9.60655 86.8313C9.40864 86.5709 9.21446 86.3066 9.02398 86.0382L8.61625 86.3276C8.23237 85.7868 7.86339 85.2302 7.50907 84.6575L7.93426 84.3944C7.76214 84.1162 7.59349 83.8341 7.42829 83.5481L6.99532 83.7982C6.6653 83.2268 6.34899 82.6403 6.04613 82.0384L6.49278 81.8136C6.34501 81.52 6.20046 81.2225 6.05909 80.9213L5.60645 81.1337C5.3271 80.5384 5.06017 79.9288 4.80543 79.3046L5.26835 79.1157C5.14562 78.815 5.02572 78.5108 4.90862 78.2031L4.44131 78.3809C4.20757 77.7666 3.98501 77.1388 3.77342 76.4974L4.24826 76.3408C4.14655 76.0324 4.04738 75.7208 3.95073 75.4059L3.47273 75.5526C3.28059 74.9266 3.09838 74.288 2.92593 73.6367L3.40928 73.5087C3.32563 73.1928 3.24428 72.8737 3.1652 72.5516L2.67962 72.6708C2.52403 72.0369 2.37726 71.3914 2.23914 70.734L2.72846 70.6312C2.66089 70.3096 2.5954 69.9852 2.53197 69.6578L2.0411 69.7528C1.91732 69.114 1.80137 68.4642 1.69311 67.8035L2.18653 67.7227C2.13319 67.3972 2.08173 67.0689 2.03212 66.738L1.53764 66.8121C1.4414 66.17 1.35213 65.5178 1.26971 64.8555L1.76589 64.7937C1.72508 64.4658 1.68595 64.1352 1.6485 63.8021L1.15163 63.858C1.0792 63.2138 1.013 62.5602 0.952942 61.897L1.4509 61.8519C1.42109 61.5227 1.39279 61.1911 1.36599 60.8571L0.867593 60.8971C0.815777 60.2512 0.769576 59.5964 0.728904 58.9328L1.22797 58.9023C1.20777 58.5728 1.18895 58.2411 1.17148 57.9072L0.672163 57.9333C0.638283 57.2857 0.60949 56.6297 0.585708 55.9655L1.08539 55.9476C1.07361 55.6187 1.06307 55.2877 1.05375 54.9547L0.553948 54.9687C0.535769 54.319 0.52223 53.6615 0.513262 52.9961L1.01322 52.9893C1.0088 52.6617 1.0055 52.3321 1.0033 52.0005L0.503307 52.0038C0.5011 51.6712 0.5 51.3366 0.5 51C0.5 50.6653 0.501174 50.3325 0.503531 50.0014L1.00352 50.005C1.00587 49.6752 1.0094 49.3472 1.01411 49.021L0.514162 49.0138C0.52375 48.3506 0.538231 47.6949 0.557681 47.0465L1.05746 47.0615C1.06738 46.7307 1.0786 46.4019 1.09113 46.075L0.591498 46.0559C0.616898 45.3933 0.647653 44.7386 0.683848 44.0917L1.18307 44.1197C1.2016 43.7885 1.22156 43.4595 1.24296 43.1326L0.744027 43.0999C0.787372 42.4377 0.836611 41.784 0.891838 41.1386L1.39002 41.1812C1.41832 40.8505 1.44819 40.522 1.47966 40.1958L0.981971 40.1478C1.04578 39.4862 1.11611 38.8336 1.19307 38.1899L1.68953 38.2493C1.72891 37.92 1.77003 37.593 1.81289 37.2684L1.3172 37.203C1.40443 36.5426 1.4989 35.8918 1.60073 35.2505L2.09454 35.329C2.14644 35.0021 2.20026 34.6779 2.25602 34.3561L1.76336 34.2707C1.8774 33.6127 1.99951 32.9649 2.12983 32.3274L2.61969 32.4276C2.68572 32.1046 2.75385 31.7844 2.82412 31.4668L2.33593 31.3588C2.4806 30.7049 2.63429 30.0622 2.79715 29.4305L3.28132 29.5553C3.36318 29.2378 3.44736 28.9232 3.53389 28.6114L3.05209 28.4777C3.2316 27.8309 3.42116 27.196 3.62096 26.573L4.09708 26.7257C4.19699 26.4141 4.29948 26.1056 4.40454 25.8002L3.93173 25.6375C4.15006 25.0029 4.37953 24.381 4.62036 23.7717L5.08535 23.9555C5.20686 23.6481 5.33126 23.3441 5.45858 23.0433L4.99814 22.8484C5.25926 22.2317 5.53263 21.6284 5.81849 21.0386L6.26844 21.2566C6.41235 20.9597 6.55944 20.6662 6.70972 20.3763L6.26581 20.1462C6.57418 19.5513 6.89598 18.9706 7.23144 18.4041L7.66167 18.6588C7.82849 18.3771 7.99871 18.099 8.17235 17.8245L7.74979 17.5572C8.10783 16.9912 8.48034 16.44 8.86756 15.9036L9.27297 16.1962C9.46519 15.93 9.66107 15.6674 9.86063 15.4086L9.46466 15.1033C9.87219 14.5747 10.2949 14.0613 10.7331 13.563L11.1086 13.8931C11.3249 13.647 11.5451 13.4047 11.7691 13.1661L11.4046 12.8238C11.8599 12.3389 12.3309 11.869 12.8177 11.4142L13.159 11.7795C13.3981 11.5562 13.641 11.3366 13.8878 11.1205L13.5586 10.7443C14.0577 10.3075 14.5725 9.88551 15.1033 9.47817L15.4077 9.87481C15.6657 9.6768 15.9276 9.48228 16.1933 9.29124L15.9014 8.88527C16.4373 8.5 16.9885 8.12879 17.5552 7.77147L17.8219 8.19443C18.0981 8.02025 18.3782 7.84939 18.6621 7.68184L18.4079 7.25125C18.9737 6.91734 19.5542 6.5965 20.1495 6.2886L20.3792 6.73272C20.6691 6.58281 20.9626 6.43597 21.2598 6.29218L21.0421 5.84209C21.6332 5.55613 22.2383 5.28224 22.8577 5.02029L23.0525 5.48079C23.3496 5.35515 23.65 5.23226 23.9539 5.11211L23.77 4.64714C24.3787 4.40645 25.0006 4.17673 25.6358 3.95785L25.7987 4.43057C26.1052 4.32498 26.4148 4.22191 26.7277 4.12136L26.5748 3.64533C27.1957 3.44579 27.8289 3.25614 28.4747 3.07625L28.6089 3.55791C28.923 3.4704 29.2402 3.38521 29.5604 3.30232L29.4351 2.81827C30.0644 2.65539 30.7052 2.50139 31.3576 2.35618L31.4663 2.84423C31.7861 2.77304 32.1089 2.70396 32.4345 2.63698L32.3338 2.14723C32.9687 2.01666 33.6143 1.89408 34.2706 1.77941L34.3567 2.27195C34.6806 2.21536 35.0072 2.1607 35.3365 2.10796L35.2575 1.61425C35.896 1.512 36.5445 1.41696 37.203 1.32906L37.2691 1.82466C37.5956 1.78108 37.9247 1.73926 38.2562 1.69919L38.1962 1.2028C38.8373 1.12533 39.4876 1.05439 40.1473 0.989912L40.1959 1.48754C40.5237 1.4555 40.8539 1.42506 41.1865 1.39622L41.1433 0.898092C41.7863 0.842326 42.438 0.792503 43.0985 0.748571L43.1317 1.24747C43.4598 1.22565 43.7901 1.20528 44.1227 1.18637L44.0943 0.687175C44.7392 0.650497 45.3923 0.619263 46.0537 0.593425L46.0732 1.09304C46.4008 1.08025 46.7304 1.06878 47.0621 1.05864L47.0468 0.55887C47.6939 0.539079 48.3488 0.524306 49.0115 0.514509L49.0189 1.01445C49.3452 1.00963 49.6734 1.00602 50.0036 1.00361L50 0.503622C50.3314 0.501206 50.6647 0.5 51 0.5C51.3366 0.5 51.6712 0.5011 52.0038 0.503307L52.0005 1.0033C52.3321 1.0055 52.6617 1.0088 52.9893 1.01322L52.9961 0.513262C53.6615 0.52223 54.319 0.535769 54.9687 0.553948L54.9547 1.05375C55.2878 1.06307 55.6187 1.07361 55.9476 1.08539L55.9655 0.585709C56.6298 0.609491 57.2857 0.638284 57.9333 0.672163L57.9072 1.17148C58.2411 1.18895 58.5728 1.20778 58.9023 1.22797L58.9329 0.728905C59.5965 0.769577 60.2512 0.815778 60.8971 0.867594L60.8571 1.36599C61.1911 1.39279 61.5227 1.42109 61.852 1.4509L61.8971 0.952943C62.5602 1.013 63.2138 1.0792 63.858 1.15163L63.8022 1.6485C64.1353 1.68595 64.4658 1.72508 64.7938 1.76589L64.8555 1.26972C65.5178 1.35213 66.17 1.4414 66.8121 1.53764L66.738 2.03212C67.069 2.08173 67.3972 2.13319 67.7227 2.18653L67.8035 1.69311C68.4642 1.80137 69.114 1.91732 69.7529 2.0411L69.6578 2.53197C69.9852 2.5954 70.3097 2.66089 70.6312 2.72846L70.734 2.23914C71.3914 2.37726 72.0369 2.52403 72.6708 2.67962L72.5516 3.16521C72.8737 3.24428 73.1928 3.32563 73.5087 3.40928L73.6367 2.92593C74.288 3.09838 74.9266 3.28059 75.5526 3.47274L75.4059 3.95073C75.7208 4.04738 76.0324 4.14655 76.3408 4.24826L76.4974 3.77342C77.1389 3.98501 77.7666 4.20757 78.3809 4.44131L78.2031 4.90862C78.5108 5.02572 78.815 5.14562 79.1157 5.26836L79.3046 4.80543C79.9288 5.06017 80.5384 5.3271 81.1337 5.60645L80.9213 6.05909C81.2225 6.20046 81.52 6.34501 81.8136 6.49278L82.0384 6.04613C82.6403 6.34899 83.2268 6.6653 83.7982 6.99532L83.5481 7.42829C83.8341 7.59349 84.1162 7.76214 84.3944 7.93426L84.6575 7.50907C85.2302 7.86339 85.7868 8.23237 86.3276 8.61625L86.0382 9.02398C86.3066 9.21446 86.5709 9.40864 86.8313 9.60655L87.1339 9.20849C87.6685 9.61491 88.1868 10.0369 88.689 10.4747L88.3604 10.8516C88.6088 11.0681 88.8531 11.2885 89.0933 11.5129L89.4346 11.1474C89.9235 11.6039 90.3961 12.0765 90.8526 12.5654L90.4872 12.9067C90.7115 13.147 90.9319 13.3912 91.1485 13.6396L91.5253 13.311C91.9631 13.8132 92.3851 14.3315 92.7915 14.8661L92.3935 15.1687C92.5914 15.4291 92.7856 15.6934 92.976 15.9618L93.3838 15.6724C93.7676 16.2132 94.1366 16.7698 94.491 17.3425L94.0658 17.6056C94.2379 17.8838 94.4065 18.1659 94.5717 18.4519L95.0047 18.2018C95.3347 18.7732 95.651 19.3597 95.9539 19.9616L95.5072 20.1864C95.655 20.48 95.7996 20.7775 95.9409 21.0787L96.3936 20.8663C96.6729 21.4616 96.9398 22.0712 97.1946 22.6954L96.7317 22.8843C96.8544 23.185 96.9743 23.4892 97.0914 23.7969L97.5587 23.6191C97.7924 24.2334 98.015 24.8612 98.2266 25.5026L97.7518 25.6592C97.8535 25.9676 97.9526 26.2792 98.0493 26.5941L98.5273 26.4474C98.7194 27.0734 98.9016 27.712 99.0741 28.3633L98.5907 28.4913C98.6744 28.8072 98.7557 29.1263 98.8348 29.4484L99.3204 29.3292C99.476 29.9631 99.6228 30.6086 99.7609 31.266L99.2716 31.3688C99.3391 31.6903 99.4046 32.0148 99.468 32.3422L99.9589 32.2471C100.083 32.886 100.199 33.5358 100.307 34.1965L99.8135 34.2773C99.8668 34.6028 99.9183 34.9311 99.9679 35.262L100.462 35.1879C100.559 35.83 100.648 36.4822 100.73 37.1445L100.234 37.2063C100.275 37.5342 100.314 37.8648 100.352 38.1979L100.848 38.142C100.921 38.7862 100.987 39.4398 101.047 40.103L100.549 40.1481C100.579 40.4773 100.607 40.8089 100.634 41.1429L101.132 41.1029C101.184 41.7488 101.23 42.4036 101.271 43.0672L100.772 43.0977C100.792 43.4272 100.811 43.7589 100.829 44.0928L101.328 44.0667C101.362 44.7143 101.391 45.3703 101.414 46.0345L100.915 46.0524C100.926 46.3813 100.937 46.7123 100.946 47.0453L101.446 47.0313C101.464 47.681 101.478 48.3385 101.487 49.0039L100.987 49.0107C100.991 49.3383 100.995 49.6679 100.997 49.9995L101.497 49.9962C101.499 50.3288 101.5 50.6634 101.5 51C101.5 51.3366 101.499 51.6712 101.497 52.0039L100.997 52.0005C100.995 52.3321 100.991 52.6617 100.987 52.9893L101.487 52.9961C101.478 53.6615 101.464 54.319 101.446 54.9687L100.946 54.9547C100.937 55.2878 100.926 55.6187 100.915 55.9476L101.414 55.9655C101.391 56.6298 101.362 57.2857 101.328 57.9333L100.829 57.9072C100.811 58.2411 100.792 58.5728 100.772 58.9023L101.271 58.9329C101.23 59.5965 101.184 60.2512 101.132 60.8971L100.634 60.8572C100.607 61.1912 100.579 61.5228 100.549 61.852L101.047 61.8971C100.987 62.5602 100.921 63.2138 100.848 63.8581L100.352 63.8022C100.314 64.1353 100.275 64.4658 100.234 64.7938L100.73 64.8555C100.648 65.5179 100.559 66.17 100.462 66.8121L99.9679 66.738C99.9183 67.069 99.8669 67.3972 99.8135 67.7227L100.307 67.8036C100.199 68.4643 100.083 69.114 99.959 69.7529L99.4681 69.6578C99.4047 69.9852 99.3392 70.3097 99.2716 70.6313L99.7609 70.7341C99.6228 71.3914 99.4761 72.037 99.3205 72.6709L98.8349 72.5517C98.7558 72.8738 98.6745 73.1929 98.5908 73.5088L99.0742 73.6368C98.9017 74.2881 98.7195 74.9267 98.5274 75.5527L98.0494 75.406C97.9527 75.7209 97.8536 76.0325 97.7519 76.3409L98.2267 76.4975C98.0151 77.1389 97.7926 77.7667 97.5588 78.381L97.0915 78.2032C96.9744 78.5109 96.8545 78.8151 96.7318 79.1158L97.1947 79.3047C96.94 79.9289 96.673 80.5385 96.3937 81.1338L95.9411 80.9214C95.7997 81.2227 95.6551 81.5201 95.5074 81.8138L95.954 82.0385C95.6512 82.6404 95.3349 83.227 95.0048 83.7983L94.5719 83.5483C94.4067 83.8343 94.238 84.1164 94.0659 84.3946L94.4911 84.6576C94.1368 85.2303 93.7678 85.787 93.3839 86.3278L92.9762 86.0384C92.7857 86.3067 92.5915 86.5711 92.3936 86.8314L92.7917 87.134C92.3853 87.6687 91.9633 88.187 91.5255 88.6892L91.1486 88.3606C90.9321 88.6089 90.7117 88.8532 90.4873 89.0935L90.8528 89.4347C90.3962 89.9237 89.9236 90.3962 89.4347 90.8528L89.0935 90.4873C88.8532 90.7117 88.6089 90.9321 88.3606 91.1486L88.6892 91.5255C88.187 91.9633 87.6687 92.3853 87.134 92.7917L86.8314 92.3936C86.5711 92.5915 86.3067 92.7857 86.0384 92.9762L86.3278 93.3839C85.787 93.7678 85.2303 94.1368 84.6576 94.4911L84.3945 94.0659C84.1164 94.238 83.8343 94.4067 83.5482 94.5719L83.7983 95.0048C83.2269 95.3349 82.6404 95.6512 82.0385 95.954L81.8138 95.5074C81.5201 95.6551 81.2226 95.7997 80.9214 95.9411L81.1338 96.3937C80.5385 96.673 79.9289 96.94 79.3047 97.1947L79.1158 96.7318C78.8151 96.8545 78.5109 96.9744 78.2032 97.0915L78.381 97.5588C77.7667 97.7926 77.1389 98.0151 76.4975 98.2267L76.3409 97.7519C76.0325 97.8536 75.7209 97.9527 75.406 98.0494L75.5527 98.5274C74.9267 98.7195 74.2881 98.9017 73.6367 99.0742L73.5088 98.5908C73.1928 98.6745 72.8738 98.7558 72.5517 98.8349L72.6709 99.3205C72.037 99.4761 71.3914 99.6228 70.7341 99.7609L70.6313 99.2716C70.3097 99.3392 69.9852 99.4047 69.6578 99.4681L69.7529 99.959C69.114 100.083 68.4643 100.199 67.8036 100.307L67.7227 99.8135C67.3972 99.8669 67.069 99.9183 66.738 99.9679L66.8121 100.462C66.17 100.559 65.5179 100.648 64.8555 100.73L64.7938 100.234C64.4658 100.275 64.1353 100.314 63.8022 100.352L63.858 100.848C63.2138 100.921 62.5602 100.987 61.8971 101.047L61.852 100.549C61.5228 100.579 61.1911 100.607 60.8571 100.634L60.8971 101.132C60.2512 101.184 59.5965 101.23 58.9329 101.271L58.9023 100.772C58.5728 100.792 58.2411 100.811 57.9072 100.829L57.9333 101.328C57.2857 101.362 56.6298 101.391 55.9655 101.414L55.9476 100.915C55.6187 100.926 55.2878 100.937 54.9547 100.946L54.9687 101.446C54.319 101.464 53.6615 101.478 52.9961 101.487L52.9893 100.987C52.6617 100.991 52.3321 100.995 52.0005 100.997L52.0038 101.497C51.6712 101.499 51.3366 101.5 51 101.5C50.6634 101.5 50.3288 101.499 49.9962 101.497L49.9995 100.997Z" fill="#FFF9BF" stroke="#FECC3D" stroke-dasharray="2 1"/>
<path d="M52.5 19.5C49.6584 19.5 46.9531 19.9326 44.3958 20.8096L44.384 20.8136C41.8878 21.6882 39.6631 22.9284 37.7287 24.5429L37.7082 24.5603C35.8081 26.1929 34.3003 28.1644 33.1898 30.4577C32.0533 32.8047 31.5 35.3835 31.5 38.1609C31.5 39.204 32.3395 40.0496 33.375 40.0496H42.9C43.9355 40.0496 44.775 39.204 44.775 38.1609C44.775 37.2233 44.9666 36.4074 45.3271 35.6813L45.3429 35.6487C45.737 34.815 46.2602 34.1156 46.9155 33.5331C47.5841 32.9389 48.3873 32.4468 49.3458 32.0675C50.3284 31.698 51.3511 31.5125 52.425 31.5125C53.5296 31.5125 54.5451 31.683 55.484 32.012C56.4465 32.3492 57.2466 32.7994 57.908 33.3482C57.9255 33.3626 57.9431 33.3767 57.961 33.3905C58.5942 33.8783 59.092 34.4721 59.4658 35.1875L59.486 35.2251C59.8206 35.8319 60 36.5201 60 37.3298C60 38.6607 59.4853 39.9016 58.2468 41.1092C56.892 42.4285 55.0828 43.7474 52.7808 45.0518L52.7669 45.0598C49.5563 46.9154 47.088 49.0414 45.5228 51.494C43.8638 54.0936 43.4379 57.1485 44.0568 60.4921C44.2223 61.3863 44.997 62.0347 45.9 62.0347H55.35C55.9427 62.0347 56.5005 61.7524 56.8543 61.2734C57.2081 60.7944 57.3162 60.175 57.1459 59.6032C56.7779 58.3673 56.8885 57.6434 57.1021 57.2131C57.3672 56.679 58.0338 55.9542 59.4415 55.1309L59.459 55.1205C61.5809 53.8482 63.4628 52.6449 65.1012 51.5107C66.8508 50.3346 68.3478 49.0538 69.5689 47.6592C70.8543 46.2483 71.8319 44.6956 72.4722 43.0016C73.1767 41.2202 73.5 39.1887 73.5 36.9521C73.5 34.3511 72.936 31.9305 71.7842 29.7262C70.6551 27.565 69.1021 25.7202 67.1453 24.1996C65.2051 22.692 62.9572 21.539 60.4257 20.7245C57.9261 19.9041 55.2806 19.5 52.5 19.5Z" fill="#FEBD00"/>
<path d="M51.3 66.71C49.1278 66.71 47.2182 67.4708 45.6992 69.0009C44.1802 70.531 43.425 72.4547 43.425 74.6428C43.425 76.8309 44.1802 78.7546 45.6992 80.2847L45.729 80.314C47.2532 81.7827 49.1534 82.5 51.3 82.5C53.4466 82.5 55.3468 81.7827 56.871 80.314C58.4495 78.7903 59.25 76.8569 59.25 74.6428C59.25 72.4355 58.4556 70.5083 56.8867 68.9867C55.37 67.4661 53.4655 66.71 51.3 66.71Z" fill="#FEBD00"/>
</svg>
