<svg width="100" height="100" viewBox="0 0 100 100" fill="none" xmlns="http://www.w3.org/2000/svg">
<mask id="mask0_1_1521" style="mask-type:alpha" maskUnits="userSpaceOnUse" x="0" y="0" width="100" height="100">
<path fill-rule="evenodd" clip-rule="evenodd" d="M50 100C13.1946 100 0 86.8062 0 50C0 14.583 13.1946 0 50 0C86.8062 0 100 13.1946 100 50C100 86.8062 86.8062 100 50 100Z" fill="white"/>
</mask>
<g mask="url(#mask0_1_1521)">
<rect width="100" height="100" fill="white"/>
<path d="M100 0H0V100H100V0Z" fill="#0095FF"/>
<path d="M22.0997 55.649C23.955 50.3292 34.5229 48.0844 49.929 49.9397L52.9118 38.9719C37.6595 37.0347 26.5278 39.2179 24.6725 46.1573L22.0997 55.649Z" fill="white"/>
<path d="M77.7583 44.23C75.903 49.5498 65.3453 51.7844 49.929 49.9291L46.9462 60.8968C62.1985 62.8341 73.3302 60.6508 75.1855 53.7114L77.7583 44.23Z" fill="white"/>
<path d="M31.8578 32.6679C54.3673 34.2874 77.3585 45.4191 75.1854 53.7321L77.2047 46.3109C77.8505 43.9739 78.1682 42.7643 78.1682 41.7906C78.1682 33.3239 55.9766 22.9917 34.8407 21.7002L31.8578 32.6679Z" fill="white"/>
<path d="M68 67.2009C45.4906 65.5916 22.4994 54.4599 24.6827 46.147L22.6634 53.5681C22.0177 55.9052 21.6999 57.1147 21.6999 58.0885C21.6999 66.5551 43.8916 76.8873 65.0275 78.1788L68 67.2009Z" fill="white"/>
</g>
</svg>
