<svg width="100" height="100" viewBox="0 0 100 100" fill="none" xmlns="http://www.w3.org/2000/svg">
<mask id="mask0_1_1506" style="mask-type:alpha" maskUnits="userSpaceOnUse" x="0" y="0" width="100" height="100">
<path fill-rule="evenodd" clip-rule="evenodd" d="M50 100C13.1946 100 0 86.8062 0 50C0 14.583 13.1946 0 50 0C86.8062 0 100 13.1946 100 50C100 86.8062 86.8062 100 50 100Z" fill="white"/>
</mask>
<g mask="url(#mask0_1_1506)">
<rect width="100" height="100" fill="white"/>
<path d="M100 0H0V100H100V0Z" fill="#28333E"/>
<path fill-rule="evenodd" clip-rule="evenodd" d="M39.6369 38.1694V49.2472H41.1556V38.1694H44.9078V37.4547H35.7954V38.1694H39.6369ZM53.4841 36.1146V35.3999H46.6052V36.1146H53.4841ZM46.6052 49.2472H53.5735V48.5325H48.1239V43.2616H53.0374V42.5469H48.1239V38.2587H53.4841V37.544H46.6052V49.2472ZM55.7176 49.2472H62.6858V48.5325H57.2363V43.2616H62.1498V42.5469H57.2363V38.2587H62.5965V37.544H55.7176V49.2472ZM19 49.2472H25.9683V48.5325H20.5187V43.2616H25.4322V42.5469H20.5187V38.2587H25.8789V37.544H19V49.2472ZM62.5965 64.0771H69.5648V63.2731H64.1152V58.0022H69.0288V57.2875H64.1152V52.91H69.4755V52.1953H62.5965V64.0771ZM19 64.0771H25.8789V63.2731H20.5187V52.2846H19V64.0771ZM27.487 48.7111C28.4697 49.2472 29.7204 49.5152 30.8818 49.5152C33.2939 49.5152 35.5273 48.0858 35.5273 45.763C35.5273 41.7428 28.8271 43.0829 28.8271 40.0454C28.8271 38.8841 29.8991 37.9013 31.5072 37.9013C33.1152 37.9013 34.1873 38.7947 34.634 39.1521V38.08C34.0086 37.812 32.8472 37.276 31.4178 37.276C29.3631 37.276 27.3977 38.5267 27.3977 40.4921C27.3977 44.691 34.0086 43.1722 34.0086 46.299C34.0086 47.5498 32.7579 48.8898 30.7925 48.8898C29.1844 48.8898 27.9337 48.0858 27.3977 47.7284V48.7111H27.487ZM26.5043 64.0771L31.5072 52.1953H32.7579L34.7233 56.7515L37.8501 64.0771H36.0634L34.1873 59.6103H29.4524L27.6657 64.0771H26.5043ZM33.8299 58.8956C33.2939 57.6449 32.4899 55.6794 31.6858 53.714C30.8818 55.7688 29.8098 58.3596 29.6311 58.8956H33.8299ZM38.5648 60.1463C38.5648 62.8264 40.0835 64.2558 43.2997 64.2558C46.6945 64.2558 48.0346 62.2904 48.0346 60.2356V52.2846H47.1412V60.2356C47.1412 62.3797 45.7118 63.6305 43.5677 63.6305C41.6916 63.6305 40.2622 62.6477 40.2622 60.4143V52.2846H38.7435V60.1463H38.5648ZM71.7982 52.2846H76.0864C78.3199 52.1953 80.1959 53.0887 80.1959 55.3221C80.1959 57.4662 77.6945 58.1809 77.1585 58.2702L81 64.0771H79.3026L75.7291 58.4489H73.4957V64.0771H71.8876V52.2846H71.7982ZM75.1931 57.8235C77.1585 57.8235 78.5879 57.1088 78.5879 55.3221C78.5879 53.8034 77.6945 52.91 75.9078 52.9993H73.317V57.8235H75.1931ZM50.268 64.0771V52.2846H54.7348C58.487 52.1953 60.6311 54.3394 60.6311 58.0022C60.6311 62.3797 57.683 64.0771 54.1095 63.9878H50.268V64.0771ZM51.8761 63.3624H53.9308C57.1469 63.4518 59.1124 62.0224 59.1124 58.2702C59.1124 54.7861 57.415 52.9993 54.5562 52.9993H51.7867V63.3624H51.8761Z" fill="white"/>
</g>
</svg>
