<svg width="100" height="100" viewBox="0 0 100 100" fill="none" xmlns="http://www.w3.org/2000/svg">
<mask id="mask0_1_1539" style="mask-type:alpha" maskUnits="userSpaceOnUse" x="0" y="0" width="100" height="100">
<path fill-rule="evenodd" clip-rule="evenodd" d="M50 100C13.1946 100 0 86.8062 0 50C0 14.583 13.1946 0 50 0C86.8062 0 100 13.1946 100 50C100 86.8062 86.8062 100 50 100Z" fill="white"/>
</mask>
<g mask="url(#mask0_1_1539)">
<g clip-path="url(#clip0_1_1539)">
<path d="M100 0H0V100H100V0Z" fill="#DF1736"/>
</g>
<path d="M77.3792 56.2312H76.4746C76.2808 56.2312 76.1516 56.3927 76.1516 56.6835C76.1516 56.9742 76.2485 57.1035 76.4746 57.1035H79.899C80.1252 57.1035 80.2221 56.9419 80.2221 56.6835C80.2221 56.3927 80.1252 56.2312 79.899 56.2312H77.3792Z" fill="#59A8DB"/>
<path d="M72.1456 56.2312H71.241C71.0472 56.2312 70.918 56.3927 70.918 56.6835C70.918 56.9742 71.0472 57.1035 71.241 57.1035H74.6655C74.8916 57.1035 74.9885 56.9419 74.9885 56.6835C74.9885 56.3927 74.8916 56.2312 74.6655 56.2312H72.1456Z" fill="#65B0DD"/>
<path d="M67.2028 56.2312H66.2982C66.0721 56.2312 65.9752 56.3927 65.9752 56.6835C65.9752 56.9742 66.0721 57.1035 66.2982 57.1035H69.7226C69.9488 57.1035 70.0457 56.9419 70.0457 56.6835C70.0457 56.3927 69.9488 56.2312 69.7226 56.2312H67.2028Z" fill="#6DB5E1"/>
<path d="M61.9692 56.2312H61.097C60.8708 56.2312 60.7739 56.3927 60.7739 56.6835C60.7739 56.9742 60.8708 57.1035 61.097 57.1035H64.5214C64.7475 57.1035 64.8444 56.9419 64.8444 56.6835C64.8444 56.3927 64.7475 56.2312 64.5214 56.2312H61.9692Z" fill="#76BAE3"/>
<path d="M56.7356 56.2312H55.8633C55.6372 56.2312 55.5403 56.3927 55.5403 56.6835C55.5403 56.9742 55.6372 57.1035 55.8633 57.1035H59.2878C59.5139 57.1035 59.6108 56.9419 59.6108 56.6835C59.6108 56.3927 59.5139 56.2312 59.2878 56.2312H56.7356Z" fill="#7EBFE6"/>
<path d="M51.8252 56.2312H50.9529C50.7268 56.2312 50.6299 56.3927 50.6299 56.6835C50.6299 56.9742 50.7268 57.1035 50.9529 57.1035H54.3773C54.6035 57.1035 54.7004 56.9419 54.7004 56.6835C54.7004 56.3927 54.6035 56.2312 54.3773 56.2312H51.8252Z" fill="#87C4E6"/>
<path d="M46.5916 56.2312H45.7193C45.4932 56.2312 45.3962 56.3927 45.3962 56.6835C45.3962 56.9742 45.4932 57.1035 45.7193 57.1035H49.1437C49.3699 57.1035 49.4668 56.9419 49.4668 56.6835C49.4668 56.3927 49.3699 56.2312 49.1437 56.2312H46.5916Z" fill="#91C9E9"/>
<path d="M41.3582 56.2312H40.4859C40.2598 56.2312 40.1628 56.3927 40.1628 56.6835C40.1628 56.9742 40.2598 57.1035 40.4859 57.1035H43.878C44.0719 57.1035 44.2011 56.9419 44.2011 56.6835C44.2011 56.3927 44.1042 56.2312 43.878 56.2312H41.3582Z" fill="#9BCEEC"/>
<path d="M36.4154 56.2312H35.5108C35.2847 56.2312 35.1877 56.3927 35.1877 56.6835C35.1877 56.9742 35.2847 57.1035 35.5108 57.1035H38.9352C39.1614 57.1035 39.2583 56.9419 39.2583 56.6835C39.2583 56.3927 39.1614 56.2312 38.9352 56.2312H36.4154Z" fill="#A6D4EC"/>
<path d="M31.1818 56.2312H30.3095C30.0834 56.2312 29.9865 56.3927 29.9865 56.6835C29.9865 56.9742 30.0834 57.1035 30.3095 57.1035H33.7339C33.9601 57.1035 34.057 56.9419 34.057 56.6835C34.057 56.3927 33.9601 56.2312 33.7339 56.2312H31.1818Z" fill="#B0DAEF"/>
<path d="M25.9482 56.2312H25.0759C24.8498 56.2312 24.7529 56.3927 24.7529 56.6835C24.7529 56.9742 24.8498 57.1035 25.0759 57.1035H28.5004C28.7265 57.1035 28.8234 56.9419 28.8234 56.6835C28.8234 56.3927 28.7265 56.2312 28.5004 56.2312H25.9482Z" fill="#BADFF2"/>
<path d="M21.0054 56.2312H20.1008C19.8747 56.2312 19.7777 56.3927 19.7777 56.6835C19.7777 56.9742 19.8747 57.1035 20.1008 57.1035H23.5252C23.7514 57.1035 23.8483 56.9419 23.8483 56.6835C23.8483 56.3927 23.7514 56.2312 23.5252 56.2312H21.0054Z" fill="#C5E4F2"/>
<path d="M19.8101 45.6671H20.747V46.9594C21.07 46.4748 21.3931 46.1517 21.7484 45.9256C22.2007 45.6348 22.7176 45.5056 23.2345 45.5056C23.5899 45.5056 23.9129 45.5702 24.236 45.6994C24.5591 45.8287 24.8175 46.0225 25.0113 46.281C25.2052 46.5071 25.3667 46.8302 25.5282 47.2824C25.8513 46.7009 26.239 46.281 26.6913 45.9579C27.1435 45.6671 27.6604 45.5056 28.1773 45.5056C28.6942 45.5056 29.1142 45.6348 29.5019 45.8933C29.8895 46.1517 30.148 46.5071 30.3418 46.9917C30.5357 47.444 30.6003 48.1547 30.6003 49.0593V53.0975H29.6634V49.027C29.6634 48.2516 29.5988 47.7024 29.5019 47.4117C29.3726 47.1209 29.2111 46.8625 28.9204 46.7009C28.6619 46.5071 28.3389 46.4425 27.9835 46.4425C27.5312 46.4425 27.1435 46.5717 26.7559 46.8625C26.4005 47.1209 26.1097 47.5086 25.9482 47.9286C25.7867 48.3808 25.6898 49.1239 25.6898 50.19V53.0652H24.7529V49.2854C24.7529 48.3808 24.7206 47.7993 24.5914 47.4763C24.4621 47.1532 24.3006 46.8948 24.0099 46.7009C23.7514 46.5071 23.4284 46.4102 23.0407 46.4102C22.6207 46.4102 22.233 46.5394 21.8454 46.7979C21.49 47.0563 21.1992 47.4117 21.0377 47.8639C20.8762 48.3162 20.7793 48.9947 20.7793 49.9315V53.0652H19.8424L19.8101 45.6671Z" fill="white"/>
<path d="M36.0599 46.4425C35.2845 46.4425 34.6061 46.7332 34.0569 47.3147C33.5077 47.8963 33.217 48.607 33.217 49.4469C33.217 49.9961 33.3462 50.4807 33.6046 50.9653C33.8631 51.4176 34.1861 51.8053 34.6384 52.0314C35.0584 52.2899 35.543 52.4191 36.0599 52.4191C36.5768 52.4191 37.0291 52.2899 37.4813 52.0314C37.9336 51.773 38.2567 51.4176 38.5151 50.9653C38.7736 50.4807 38.9028 49.9961 38.9028 49.4469C38.9028 48.607 38.6121 47.8963 38.0629 47.3147C37.5137 46.7332 36.8352 46.4425 36.0599 46.4425ZM36.0599 45.5056C37.1583 45.5056 38.0952 45.9256 38.8382 46.7655C39.5166 47.5409 39.8397 48.4131 39.8397 49.4792C39.8397 50.513 39.4843 51.4176 38.7736 52.1929C38.0628 52.9683 37.1583 53.356 36.0599 53.356C34.9615 53.356 34.0569 52.9683 33.3462 52.1929C32.6355 51.4176 32.2801 50.513 32.2801 49.4792C32.2801 48.4455 32.6031 47.5409 33.2816 46.7979C34.0246 45.9256 34.9615 45.5056 36.0599 45.5056Z" fill="white"/>
<path d="M45.138 46.4426C44.6211 46.4426 44.1365 46.5718 43.6842 46.8302C43.232 47.0887 42.9089 47.4441 42.6505 47.9286C42.392 48.4132 42.2628 48.8978 42.2628 49.4147C42.2628 49.9316 42.392 50.4485 42.6505 50.9008C42.9089 51.3854 43.2643 51.7407 43.7166 52.0315C44.1688 52.2899 44.6211 52.4192 45.138 52.4192C45.6549 52.4192 46.1395 52.2899 46.5918 52.0315C47.0441 51.773 47.3994 51.4177 47.6579 50.9654C47.9163 50.5131 48.0132 49.9962 48.0132 49.447C48.0132 48.5748 47.7548 47.864 47.1733 47.3148C46.6241 46.7333 45.9457 46.4426 45.138 46.4426ZM48.8532 42.8889V53.1622H47.9486V51.87C47.561 52.3546 47.1087 52.7099 46.6241 52.9684C46.1395 53.1945 45.5903 53.3237 45.0088 53.3237C43.975 53.3237 43.1027 52.9361 42.392 52.1607C41.6813 51.4177 41.2936 50.4808 41.2936 49.3824C41.2936 48.3163 41.649 47.4117 42.392 46.6364C43.135 45.8934 44.0073 45.5057 45.0411 45.5057C45.6226 45.5057 46.1718 45.6349 46.6564 45.8934C47.141 46.1518 47.561 46.5395 47.9163 47.0564V42.8889H48.8532Z" fill="white"/>
<path d="M57.1233 48.6393C56.9941 48.1224 56.8002 47.7347 56.5741 47.4117C56.3479 47.1209 56.0249 46.8625 55.6049 46.6686C55.2172 46.4748 54.7973 46.3779 54.3773 46.3779C53.6666 46.3779 53.0527 46.604 52.5358 47.0886C52.1482 47.444 51.8897 47.9286 51.6636 48.6393H57.1233ZM57.1233 50.6746L57.8986 51.0945C57.6402 51.6114 57.3494 52.0314 56.9941 52.3545C56.6387 52.6775 56.251 52.9037 55.8311 53.0975C55.4111 53.259 54.9265 53.356 54.3773 53.356C53.182 53.356 52.2451 52.9683 51.5667 52.1606C50.8882 51.353 50.5652 50.4484 50.5652 49.4469C50.5652 48.4778 50.8559 47.6378 51.4051 46.9271C52.1159 45.9902 53.1174 45.5056 54.3127 45.5056C55.5403 45.5056 56.5418 45.9902 57.2848 46.9594C57.834 47.6378 58.0925 48.4778 58.0925 49.5115H51.5021C51.5344 50.3838 51.7928 51.0945 52.3097 51.6437C52.8266 52.1929 53.4727 52.4837 54.2481 52.4837C54.6357 52.4837 54.9911 52.4191 55.3465 52.2899C55.7018 52.1606 55.9926 51.9668 56.251 51.773C56.5741 51.5145 56.8325 51.1592 57.1233 50.6746Z" fill="white"/>
<path d="M59.611 45.6672H60.5802V46.7333C60.8709 46.3133 61.194 45.9903 61.517 45.7964C61.8401 45.6026 62.1955 45.4734 62.5185 45.4734C62.777 45.4734 63.0677 45.5703 63.3908 45.7318L62.8739 46.5395C62.6801 46.4426 62.4862 46.4103 62.357 46.4103C62.0339 46.4103 61.7109 46.5395 61.4201 46.7979C61.1294 47.0564 60.9032 47.4764 60.7417 47.9933C60.6125 48.4132 60.5479 49.2532 60.5479 50.5454V53.033H59.5787V45.6672H59.611Z" fill="white"/>
<path d="M64.5536 45.6672H65.4582V46.9918C65.8135 46.4749 66.2335 46.1195 66.6535 45.8611C67.0735 45.6026 67.5581 45.4734 68.0749 45.4734C68.5918 45.4734 69.0764 45.6026 69.4641 45.8934C69.8518 46.1841 70.1748 46.5718 70.3687 47.0241C70.5625 47.5087 70.6594 48.2194 70.6594 49.2532V53.0329H69.7549V49.5116C69.7549 48.6717 69.7226 48.0902 69.6579 47.7994C69.561 47.3148 69.3672 46.9595 69.0441 46.701C68.7534 46.4749 68.3657 46.3456 67.8811 46.3456C67.3319 46.3456 66.8473 46.5395 66.4273 46.9272C66.0074 47.3148 65.7166 47.7671 65.5874 48.3486C65.4905 48.704 65.4582 49.3824 65.4582 50.3516V53.0653H64.5536V45.6672Z" fill="white"/>
<path d="M76.2161 46.4102C75.6992 46.4102 75.2146 46.5394 74.7623 46.7979C74.31 47.0563 73.9869 47.444 73.7285 47.9286C73.47 48.4131 73.3408 48.8977 73.3408 49.4146C73.3408 49.9638 73.47 50.4484 73.7285 50.933C73.9869 51.4176 74.3423 51.773 74.7946 52.0637C75.2469 52.3222 75.6992 52.4514 76.2161 52.4514C76.733 52.4514 77.2175 52.3222 77.6698 52.0637C78.1221 51.8053 78.4775 51.4499 78.7359 50.9976C78.9944 50.5453 79.0913 50.0284 79.0913 49.4792C79.0913 48.607 78.8328 47.8963 78.2836 47.3147C77.7021 46.7009 77.0237 46.4102 76.2161 46.4102ZM79.9313 45.6994V53.1621H79.0267V51.8699C78.639 52.3545 78.1867 52.7421 77.7021 52.9683C77.2175 53.1944 76.6683 53.3237 76.0868 53.3237C75.053 53.3237 74.1808 52.936 73.4701 52.1606C72.7593 51.3853 72.3716 50.4807 72.3716 49.3823C72.3716 48.3162 72.727 47.3794 73.4701 46.6363C74.2131 45.861 75.0854 45.5056 76.1191 45.5056C76.7007 45.5056 77.2499 45.6348 77.7344 45.8933C78.219 46.1517 78.639 46.5394 78.9944 47.0563V45.6671H79.9313V45.6994Z" fill="white"/>
</g>
<defs>
<clipPath id="clip0_1_1539">
<rect width="100" height="100" fill="white"/>
</clipPath>
</defs>
</svg>
