<svg width="100" height="100" viewBox="0 0 100 100" fill="none" xmlns="http://www.w3.org/2000/svg">
<mask id="mask0_1_1533" style="mask-type:alpha" maskUnits="userSpaceOnUse" x="0" y="0" width="100" height="100">
<path fill-rule="evenodd" clip-rule="evenodd" d="M50 100C13.1946 100 0 86.8062 0 50C0 14.583 13.1946 0 50 0C86.8062 0 100 13.1946 100 50C100 86.8062 86.8062 100 50 100Z" fill="white"/>
</mask>
<g mask="url(#mask0_1_1533)">
<rect width="100" height="100" fill="white"/>
<path d="M100 0H0V100H100V0Z" fill="#28333E"/>
<path d="M61.8294 38.1705H38.5917L24.4369 24H75.9999V75.5786L61.8294 61.4082V38.1705Z" fill="white"/>
<path d="M38.5762 61.4237V41.0107L23.9999 55.587V76.0155H44.4129L58.9891 61.4237H38.5762Z" fill="white"/>
</g>
</svg>
