<svg width="100" height="100" viewBox="0 0 100 100" fill="none" xmlns="http://www.w3.org/2000/svg">
<mask id="mask0_1_1515" style="mask-type:alpha" maskUnits="userSpaceOnUse" x="0" y="0" width="100" height="100">
<path fill-rule="evenodd" clip-rule="evenodd" d="M50 100C13.1946 100 0 86.8062 0 50C0 14.583 13.1946 0 50 0C86.8062 0 100 13.1946 100 50C100 86.8062 86.8062 100 50 100Z" fill="white"/>
</mask>
<g mask="url(#mask0_1_1515)">
<rect width="100" height="100" fill="white"/>
<path d="M100 0H0V100H100V0Z" fill="#28333E"/>
<path d="M57.2029 51.5559C56.747 51.5559 56.2911 51.7382 56.0176 52.0118C55.7441 52.3765 55.5617 52.7412 55.5617 53.1059C55.5617 53.6529 55.8353 54.2 56.2911 54.8382C55.5617 55.3853 55.0147 55.75 54.7411 56.1147C54.4676 56.4794 54.3764 56.8441 54.3764 57.3912C54.3764 57.8471 54.4676 58.2118 54.7411 58.5765C54.9235 58.9412 55.197 59.2147 55.5617 59.3971C55.9264 59.5794 56.2911 59.6706 56.6558 59.6706C57.4764 59.6706 58.2058 59.3059 58.8441 58.4853C59.3911 59.3059 60.1206 59.6706 60.85 59.6706C61.2147 59.6706 61.4882 59.5794 61.7617 59.3971C62.0353 59.2147 62.2176 58.9412 62.3088 58.5765H62.0353C61.8529 58.85 61.4882 59.0324 61.1235 59.0324C60.85 59.0324 60.5764 58.9412 60.3941 58.7588C60.1206 58.5765 59.847 58.2118 59.3911 57.5735C59.5735 57.3 59.7558 56.9353 59.9382 56.4794C60.2117 55.8412 60.4853 55.4765 60.6676 55.2029C60.9411 55.0206 61.2147 54.8382 61.4882 54.7471V54.4735H58.9353V54.7471C59.5735 54.8382 59.847 55.1118 59.847 55.5676C59.847 55.75 59.7558 56.0235 59.6647 56.3882C59.5735 56.7529 59.3911 57.0265 59.1176 57.3912C58.4794 56.4794 57.8411 55.5676 57.1117 54.6559C58.2058 54.1088 58.8441 53.4706 58.8441 52.9235C58.8441 52.5588 58.6617 52.1941 58.297 52.0118C58.0235 51.6471 57.6588 51.5559 57.2029 51.5559ZM68.0529 51.5559C67.3235 51.5559 66.6853 51.7382 66.1382 52.0118C65.5911 52.3765 65.1353 52.8324 64.7705 53.4706C64.4058 54.1088 64.3147 54.8382 64.3147 55.6588C64.3147 56.8441 64.6794 57.7559 65.4088 58.4853C66.1382 59.2147 67.05 59.5794 68.1441 59.5794C69.147 59.5794 70.0588 59.2147 70.697 58.3941C70.8794 58.6676 70.9705 58.9412 71.0617 59.2147H71.3353V56.4794H71.0617C70.9705 56.9353 70.8794 57.3912 70.6058 57.8471C70.3323 58.3029 70.0588 58.6676 69.6029 58.85C69.147 59.0324 68.7823 59.1235 68.3264 59.1235C67.597 59.1235 66.8676 58.85 66.4117 58.2118C65.8647 57.5735 65.6823 56.7529 65.6823 55.5676C65.6823 54.3824 65.9558 53.3794 66.4117 52.7412C66.8676 52.1029 67.5058 51.7382 68.3264 51.7382C68.9647 51.7382 69.6029 51.9206 70.0588 52.3765C70.6058 52.7412 70.9705 53.4706 71.0617 54.5647H71.3353L71.2441 51.6471H70.9706C70.9706 52.0118 70.8794 52.2853 70.697 52.65C70.4235 52.3765 70.15 52.1029 69.6029 51.8294C69.147 51.6471 68.6911 51.5559 68.0529 51.5559ZM22.7382 51.5559C22.0088 51.5559 21.3706 51.7382 20.8235 52.0118C20.2764 52.3765 19.8206 52.8324 19.4558 53.4706C19.0911 54.1088 19 54.8382 19 55.6588C19 56.8441 19.3647 57.7559 20.0941 58.4853C20.8235 59.2147 21.7353 59.5794 22.8294 59.5794C23.8323 59.5794 24.7441 59.2147 25.3823 58.4853C25.5647 58.7588 25.6558 59.0324 25.747 59.3059H26.0206V56.5706H25.747C25.6558 57.0265 25.5647 57.4824 25.2911 57.9382C25.0176 58.3941 24.7441 58.7588 24.2882 58.9412C23.8323 59.1235 23.4676 59.2147 23.0117 59.2147C22.2823 59.2147 21.5529 58.9412 21.097 58.3029C20.55 57.6647 20.3676 56.8441 20.3676 55.6588C20.3676 54.4735 20.6411 53.4706 21.097 52.8324C21.5529 52.1941 22.1911 51.8294 23.0117 51.8294C23.65 51.8294 24.2882 52.0118 24.7441 52.4676C25.2911 52.8324 25.6558 53.5618 25.747 54.6559H26.0206L25.9294 51.7382H25.6558C25.6558 52.1029 25.4735 52.3765 25.3823 52.7412C25.1088 52.4676 24.8353 52.1941 24.3794 51.9206C23.8323 51.7382 23.2853 51.5559 22.7382 51.5559ZM29.3941 40.25C28.9382 40.25 28.3 40.25 27.4794 40.3412H26.4764V40.6147H26.6588C27.0235 40.6147 27.297 40.6147 27.4794 40.7059C27.5705 40.7971 27.6617 40.8882 27.7529 41.0706C27.7529 41.2529 27.8441 41.7088 27.8441 42.2559V46.1765C27.8441 46.8147 27.8441 47.2706 27.7529 47.4529C27.7529 47.6353 27.6617 47.7265 27.4794 47.8176C27.3882 47.9088 27.1147 47.9088 26.75 47.9088H26.5676V48.1824H30.2147V47.9088H29.9411C29.5764 47.9088 29.3029 47.9088 29.2117 47.8176C29.1206 47.7265 29.0294 47.5441 28.9382 47.3618C28.9382 47.1794 28.9382 46.7235 28.9382 46.1765V44.5353H29.85C30.7617 44.5353 31.4 44.4441 31.7647 44.2618C32.1294 44.0794 32.4029 43.8059 32.5853 43.5324C32.7676 43.1676 32.8588 42.8029 32.8588 42.3471C32.8588 41.8912 32.6764 41.4353 32.4029 41.0706C32.1294 40.7059 31.7647 40.5235 31.3088 40.4324C30.8529 40.3412 30.2147 40.25 29.3941 40.25ZM21.8264 40.3412V40.6147H22.0088C22.3735 40.6147 22.647 40.6147 22.8294 40.7059C22.9206 40.7971 23.0117 40.8882 23.1029 41.0706C23.1029 41.2529 23.1941 41.7088 23.1941 42.2559V44.9912C23.1941 45.9029 23.1941 46.5412 23.1029 46.9059C23.0117 47.2706 22.8294 47.6353 22.5558 47.9088C22.2823 48.1824 21.9176 48.3647 21.4617 48.3647C21.2794 48.3647 21.097 48.3647 20.9147 48.2735C20.7323 48.1824 20.7323 48.0912 20.7323 48C20.7323 47.9088 20.7323 47.9088 20.8235 47.8176C20.9147 47.7265 20.9147 47.6353 20.9147 47.5441C20.9147 47.3618 20.8235 47.2706 20.7323 47.0882C20.6411 46.9971 20.4588 46.9059 20.2764 46.9059C20.0941 46.9059 20.0029 46.9971 19.8205 47.0882C19.7294 47.1794 19.6382 47.3618 19.6382 47.5441C19.6382 47.8176 19.8206 48.0912 20.0941 48.3647C20.4588 48.5471 20.9147 48.7294 21.4617 48.7294C22.0088 48.7294 22.4647 48.6382 22.8294 48.4559C23.1941 48.2735 23.5588 48 23.8323 47.7265C24.1058 47.3618 24.197 47.0882 24.2882 46.7235C24.3794 46.3588 24.3794 45.9029 24.3794 45.1735V42.4382C24.3794 41.8 24.3794 41.3441 24.4706 41.1618C24.4706 40.9794 24.5617 40.8882 24.7441 40.7971C24.8353 40.7059 25.1088 40.7059 25.4735 40.7059H25.6558V40.4324H21.8264V40.3412ZM33.8617 40.3412V40.6147H34.0441C34.4088 40.6147 34.6823 40.6147 34.8647 40.7059C34.9558 40.7971 35.047 40.8882 35.1382 41.0706C35.1382 41.2529 35.2294 41.7088 35.2294 42.2559V45.7206C35.2294 46.3588 35.2294 46.8147 35.1382 47.0882C35.047 47.3618 34.9558 47.5441 34.7735 47.7265C34.5911 47.9088 34.3176 48 33.9529 48V48.2735H36.7794V48C36.4147 48 36.1411 47.9088 35.9588 47.7265C35.7764 47.5441 35.5941 47.3618 35.5941 47.0882C35.5941 46.8147 35.5029 46.45 35.5029 45.8118V41.1618L38.6941 48.2735H38.9676L42.0676 41.1618V46.2676C42.0676 46.9059 42.0676 47.3618 41.9764 47.5441C41.9764 47.7265 41.8853 47.8176 41.7029 47.9088C41.6117 48 41.3382 48 40.9735 48H40.7V48.2735H44.5294V48H44.1647C43.8 48 43.5264 48 43.4353 47.9088C43.3441 47.8176 43.2529 47.6353 43.1617 47.4529C43.1617 47.2706 43.0706 46.8147 43.0706 46.1765V42.2559C43.0706 41.6176 43.0705 41.1618 43.1617 40.9794C43.1617 40.7971 43.2529 40.7059 43.4353 40.6147C43.5264 40.5235 43.8 40.5235 44.2558 40.5235H44.5294V40.25H42.0676L39.15 46.8147L36.3235 40.3412H33.8617ZM57.2941 51.8294C57.5676 51.8294 57.8411 51.9206 58.0235 52.1029C58.2058 52.2853 58.297 52.5588 58.297 52.8324C58.297 53.3794 57.9323 53.8353 57.1117 54.2912C56.6558 53.6529 56.3823 53.1059 56.3823 52.7412C56.3823 52.4676 56.4735 52.1941 56.6558 52.0118C56.747 51.9206 57.0205 51.8294 57.2941 51.8294ZM29.4853 40.5235C30.2147 40.5235 30.7617 40.7059 31.0353 40.9794C31.4 41.2529 31.4911 41.8 31.4911 42.4382C31.4911 42.8941 31.4 43.2588 31.2176 43.5324C31.0353 43.8059 30.7617 43.9882 30.4882 44.0794C30.2147 44.1706 29.85 44.2618 29.3941 44.2618H28.847V40.5235C29.0294 40.5235 29.3029 40.5235 29.4853 40.5235ZM43.0706 53.3794C42.6147 53.3794 42.25 53.4706 41.9764 53.8353C41.7029 54.1088 41.5205 54.4735 41.5205 54.9294C41.5205 55.2029 41.6117 55.4765 41.7029 55.75C41.7941 56.0235 41.9764 56.2059 42.25 56.3882C42.5235 56.5706 42.8882 56.7529 43.3441 56.9353C43.8911 57.1176 44.2558 57.3912 44.4382 57.5735C44.6206 57.7559 44.7117 58.0294 44.7117 58.3029C44.7117 58.5765 44.6205 58.85 44.347 59.1235C44.0735 59.3971 43.8 59.4882 43.3441 59.4882C42.4323 59.4882 41.7941 58.85 41.6117 57.6647H41.4294V59.5794H41.6117C41.7029 59.3059 41.7029 59.1235 41.7941 59.0324C42.25 59.4882 42.797 59.7618 43.4353 59.7618C43.9823 59.7618 44.4382 59.5794 44.8029 59.3059C45.1676 59.0324 45.35 58.5765 45.35 58.0294C45.35 57.6647 45.2588 57.3912 45.1676 57.2088C44.9853 56.9353 44.8029 56.7529 44.6205 56.6618C44.347 56.4794 43.9823 56.2971 43.5264 56.1147C42.9794 55.8412 42.6147 55.6588 42.4323 55.4765C42.25 55.2941 42.1588 55.0206 42.1588 54.7471C42.1588 54.5647 42.25 54.2912 42.4323 54.1088C42.6147 53.9265 42.8882 53.8353 43.2529 53.8353C43.6176 53.8353 43.9823 53.9265 44.2558 54.2C44.5294 54.4735 44.7117 54.8382 44.8029 55.2941H44.9853V53.7441H44.8029C44.8029 53.9265 44.7117 54.1088 44.6205 54.2912C44.347 54.0176 44.1647 53.8353 43.8911 53.7441C43.5264 53.3794 43.2529 53.3794 43.0706 53.3794ZM48.3588 42.0735C47.447 42.0735 46.6264 42.3471 45.9882 42.8941C45.35 43.4412 45.0764 44.2618 45.0764 45.1735C45.0764 46.1765 45.35 46.9059 45.9882 47.5441C46.6264 48.0912 47.447 48.4559 48.3588 48.4559C49.3617 48.4559 50.1823 48.1824 50.7294 47.5441C51.3676 46.9971 51.6411 46.1765 51.6411 45.2647C51.6411 44.2618 51.2764 43.5324 50.6382 42.9853C50.0911 42.3471 49.2705 42.0735 48.3588 42.0735ZM62.4911 42.0735C61.5794 42.0735 60.7588 42.4382 60.2117 43.0765C59.6647 43.7147 59.3911 44.5353 59.3911 45.3559C59.3911 46.2676 59.6647 46.9971 60.3029 47.5441C60.85 48.0912 61.5794 48.3647 62.4911 48.3647C62.947 48.3647 63.4029 48.2735 63.8588 48.0912C64.2235 47.9088 64.497 47.9088 64.7705 47.9088C64.8617 47.9088 64.8617 47.9088 64.9529 47.9088V47.2706C64.9529 46.7235 64.9529 46.45 65.0441 46.2676C65.0441 46.0853 65.1353 45.9941 65.2264 45.9941C65.3176 45.9029 65.5 45.9029 65.8647 45.9029V45.7206H63.2206V45.9029H63.4029C63.6764 45.9029 63.7676 45.9029 63.8588 45.9941C63.95 45.9941 64.0411 46.0853 64.0411 46.1765C64.0411 46.2676 64.1323 46.5412 64.1323 46.8147C64.1323 47.0882 64.0411 47.3618 63.95 47.5441C63.8588 47.7265 63.6764 47.9088 63.4029 48C63.1294 48.0912 62.8558 48.1824 62.5823 48.1824C61.9441 48.1824 61.4882 48 61.0323 47.5441C60.5764 47.0882 60.3941 46.3588 60.3941 45.2647C60.3941 44.1706 60.5764 43.4412 61.0323 42.9853C61.4882 42.5294 61.9441 42.3471 62.4911 42.3471C63.0382 42.3471 63.4941 42.5294 63.8588 42.8941C64.2235 43.2588 64.497 43.7147 64.5882 44.3529H64.7705V42.3471H64.5882C64.5882 42.6206 64.497 42.8029 64.4058 43.0765C63.95 42.3471 63.3117 42.0735 62.4911 42.0735ZM75.9853 53.3794C75.0735 53.3794 74.3441 53.6529 73.7058 54.2C73.0676 54.7471 72.7941 55.4765 72.7941 56.3882C72.7941 57.3 73.0676 58.0294 73.7058 58.6676C74.3441 59.2147 75.0735 59.4882 75.9853 59.4882C76.9882 59.4882 77.7176 59.2147 78.3558 58.6676C78.9029 58.1206 79.2676 57.3912 79.2676 56.4794C79.2676 55.5676 78.9941 54.7471 78.3558 54.2C77.6264 53.6529 76.897 53.3794 75.9853 53.3794ZM37.5088 53.3794L35.7764 57.4824C35.6853 57.7559 35.5941 57.9382 35.5941 58.0294C35.4117 58.4853 35.2294 58.7588 35.1382 58.9412C35.047 59.1235 34.7735 59.2147 34.5911 59.2147V59.3971H36.4147V59.2147C36.2323 59.2147 36.05 59.1235 35.9588 59.0324C35.8676 58.9412 35.7764 58.85 35.7764 58.6676C35.7764 58.4853 35.8676 58.1206 36.1411 57.5735L36.3235 57.2088H38.6029L39.0588 58.3029C39.15 58.5765 39.2411 58.85 39.2411 58.85C39.2411 58.9412 39.15 59.0324 39.0588 59.1235C38.9676 59.1235 38.7853 59.2147 38.5117 59.2147V59.3971H40.8823V59.2147C40.7 59.2147 40.5176 59.1235 40.4264 59.0324C40.3353 58.9412 40.2441 58.85 40.1529 58.6676L39.8794 58.0294L37.8735 53.2882H37.5088V53.3794ZM54.7411 42.0735C54.3764 42.0735 53.9206 42.0735 53.3735 42.0735H52.5529V42.2559H52.6441C52.9176 42.2559 53.1911 42.2559 53.2823 42.3471C53.3735 42.4382 53.4647 42.5294 53.4647 42.6206C53.4647 42.8029 53.4647 43.0765 53.4647 43.5324V46.5412C53.4647 47.0882 53.4647 47.3618 53.4647 47.5441C53.4647 47.7265 53.3735 47.8176 53.2823 47.8176C53.1911 47.9088 53.0088 47.9088 52.7353 47.9088H52.5529V48.0912H55.4706H55.197C54.9235 48.0912 54.7411 48.0912 54.65 48C54.5588 47.9088 54.4676 47.8176 54.4676 47.6353C54.4676 47.4529 54.4676 47.1794 54.4676 46.7235V45.3559H54.5588C54.7411 45.3559 54.8323 45.3559 54.9235 45.4471C55.0147 45.5382 55.1058 45.6294 55.3794 45.9029C55.5617 46.1765 55.7441 46.45 56.0176 46.7235C56.6558 47.5441 57.1117 48.0912 57.3853 48.3647H59.0264V48.0912C58.6617 48.0912 58.3882 48 58.1147 47.8176C57.8411 47.6353 57.4764 47.1794 57.0205 46.6324C56.4735 45.9029 56.0176 45.4471 55.7441 45.2647C56.2911 45.1735 56.747 44.9912 57.0205 44.7176C57.2941 44.4441 57.4764 44.0794 57.4764 43.7147C57.4764 43.35 57.3853 43.0765 57.1117 42.8029C56.9294 42.5294 56.5647 42.3471 56.2 42.2559C55.8353 42.1647 55.3794 42.0735 54.7411 42.0735ZM69.3294 42.0735L67.5058 46.2676C67.4147 46.5412 67.3235 46.7235 67.3235 46.8147C67.1411 47.2706 66.9588 47.6353 66.8676 47.7265C66.7764 47.9088 66.5029 48 66.2294 48V48.1824H68.0529V48.0912C67.8706 48.0912 67.6882 48.0912 67.597 48C67.5058 47.9088 67.4147 47.7265 67.4147 47.5441C67.4147 47.3618 67.5058 46.9971 67.7794 46.45L67.9617 46.0853H70.2411L70.697 47.1794C70.8794 47.5441 70.8794 47.7265 70.8794 47.8176C70.8794 47.9088 70.7882 48 70.697 48.0912C70.6058 48.0912 70.4235 48.1824 70.0588 48.1824V48.3647H72.4294V48.0912C72.247 48.0912 72.0647 48 71.9735 47.9088C71.8823 47.8176 71.7911 47.7265 71.7 47.5441L71.4264 46.9059L69.4206 42.0735H69.3294ZM27.3882 53.4706V53.6529H27.4794C27.7529 53.6529 27.9353 53.6529 28.0264 53.7441C28.1176 53.8353 28.2088 53.9265 28.2088 54.0176C28.2088 54.2 28.3 54.4735 28.3 54.9294V57.8471C28.3 58.3029 28.3 58.6676 28.2088 58.7588C28.2088 58.85 28.1176 59.0324 28.0264 59.0324C27.9353 59.1235 27.7529 59.1235 27.4794 59.1235H27.297V59.3059H30.0323V59.1235H29.9411C29.6676 59.1235 29.4853 59.1235 29.3941 59.0324C29.3029 58.9412 29.2117 58.85 29.2117 58.7588C29.2117 58.5765 29.2117 58.3029 29.2117 57.8471V56.3882H32.3117V57.8471C32.3117 58.3029 32.3117 58.6676 32.3117 58.7588C32.3117 58.85 32.2205 59.0324 32.1294 59.0324C32.0382 59.1235 31.8558 59.1235 31.5823 59.1235H31.4V59.3059H34.0441V59.1235H33.9529C33.6794 59.1235 33.497 59.1235 33.4058 59.0324C33.3147 58.9412 33.2235 58.85 33.2235 58.7588C33.2235 58.5765 33.2235 58.3029 33.2235 57.8471V54.9294C33.2235 54.4735 33.2235 54.1088 33.3147 54.0176C33.3147 53.9265 33.4058 53.8353 33.497 53.7441C33.5882 53.6529 33.7705 53.6529 34.0441 53.6529H34.1353V53.4706H31.4911V53.6529H31.6735C31.947 53.6529 32.1294 53.6529 32.2205 53.7441C32.3117 53.8353 32.4029 53.9265 32.4029 54.0176C32.4029 54.2 32.4029 54.4735 32.4029 54.9294V56.1147H29.3029V54.9294C29.3029 54.4735 29.3029 54.1088 29.3941 54.0176C29.3941 53.9265 29.4853 53.8353 29.5764 53.7441C29.6676 53.6529 29.85 53.6529 30.1235 53.6529H30.2147V53.4706H27.3882ZM46.4441 53.4706V53.6529C46.7176 53.6529 46.9 53.6529 46.9911 53.7441C47.0823 53.8353 47.1735 53.9265 47.1735 54.0176C47.1735 54.2 47.1735 54.4735 47.1735 54.9294V57.8471C47.1735 58.3029 47.1735 58.6676 47.1735 58.7588C47.1735 58.85 47.0823 58.9412 46.9911 59.0324C46.9 59.1235 46.7176 59.1235 46.4441 59.1235H46.3529V59.3059H51.2764L51.3676 57.4824H51.1853C51.0941 57.9382 50.9117 58.3029 50.7294 58.4853C50.547 58.7588 50.3647 58.9412 50.1823 58.9412C50 59.0324 49.7264 59.0324 49.4529 59.0324H48.997C48.6323 59.0324 48.3588 58.9412 48.2676 58.85C48.1764 58.7588 48.1764 58.3029 48.1764 57.5735V56.2971H48.8147C49.0882 56.2971 49.2705 56.2971 49.3617 56.3882C49.4529 56.3882 49.5441 56.4794 49.6353 56.5706C49.7264 56.6618 49.7264 56.9353 49.7264 57.2088H49.9088V55.2029H49.7264C49.7264 55.4765 49.7264 55.6588 49.6353 55.75C49.6353 55.8412 49.5441 55.9324 49.4529 55.9324C49.3617 56.0235 49.1794 56.0235 48.8147 56.0235H48.1764V53.5618H48.997C49.4529 53.5618 49.7264 53.5618 49.9088 53.6529C50.0911 53.6529 50.2735 53.8353 50.3647 53.9265C50.4558 54.1088 50.6382 54.3824 50.7294 54.8382H50.9117L50.7294 53.3794H46.4441V53.4706ZM73.3411 42.1647V42.3471C73.7058 42.3471 73.8882 42.3471 73.9794 42.4382C74.0706 42.4382 74.1617 42.6206 74.1617 42.7118C74.1617 42.8941 74.2529 43.1676 74.2529 43.6235V46.9059C74.2529 47.2706 74.2529 47.5441 74.1617 47.6353C74.1617 47.7265 74.0705 47.8176 73.8882 47.9088C73.7058 48 73.5235 48.0912 73.25 48.0912V48.2735H75.5294V48.0912C75.1647 48.0912 74.9823 48.0912 74.8 48C74.6176 47.9088 74.5264 47.8176 74.5264 47.7265C74.5264 47.6353 74.4353 47.3618 74.4353 46.9971V42.7118L78.8117 48.4559H78.9941V43.35C78.9941 43.0765 78.9941 42.8941 79.0853 42.8029C79.0853 42.7118 79.1764 42.6206 79.3588 42.5294C79.5411 42.4382 79.7235 42.4382 79.997 42.3471V42.1647H77.8088V42.3471C78.0823 42.3471 78.2647 42.3471 78.447 42.4382C78.6294 42.5294 78.7205 42.6206 78.8117 42.7118C78.9029 42.8029 78.9029 42.9853 78.9029 43.2588V46.9059L75.2558 42.0735H73.3411V42.1647ZM48.3588 42.2559C49.0882 42.2559 49.6353 42.5294 50.0911 42.9853C50.4558 43.5324 50.6382 44.1706 50.6382 45.1735C50.6382 46.1765 50.4558 46.9059 50 47.3618C49.6353 47.8176 49.0882 48.0912 48.3588 48.0912C47.5382 48.0912 46.9911 47.8176 46.6264 47.3618C46.2617 46.9059 46.0794 46.1765 46.0794 45.1735C46.0794 44.1706 46.2617 43.4412 46.6264 42.9853C47.0823 42.5294 47.6294 42.2559 48.3588 42.2559ZM75.9853 53.5618C76.7147 53.5618 77.2617 53.8353 77.6264 54.2912C77.9911 54.7471 78.1735 55.4765 78.1735 56.3882C78.1735 57.3 77.9911 58.0294 77.6264 58.4853C77.2617 58.9412 76.7147 59.2147 76.0764 59.2147C75.347 59.2147 74.7088 58.9412 74.3441 58.4853C73.9794 58.0294 73.797 57.3 73.797 56.3882C73.797 55.4765 73.9794 54.7471 74.3441 54.2912C74.7088 53.8353 75.2558 53.5618 75.9853 53.5618ZM54.7411 42.2559C55.4706 42.2559 55.9264 42.3471 56.1088 42.6206C56.2911 42.8941 56.3823 43.2588 56.3823 43.6235C56.3823 43.8971 56.3823 44.0794 56.2911 44.2618C56.2 44.4441 56.1088 44.5353 56.0176 44.7176C55.9264 44.8088 55.7441 44.9 55.5617 44.9912C55.3794 45.0824 55.197 45.0824 54.9235 45.0824C54.65 45.0824 54.4676 45.0824 54.2853 45.0824V42.2559C54.4676 42.2559 54.65 42.2559 54.7411 42.2559ZM37.3264 54.4735L38.3294 56.9353H36.3235L37.3264 54.4735ZM69.147 43.1676L70.2411 45.7206H68.0529L69.147 43.1676ZM56.4735 55.1118C57.1117 55.9324 57.8411 56.9353 58.6617 58.2118C58.2058 58.7588 57.6588 59.0324 57.1117 59.0324C56.6558 59.0324 56.2 58.85 55.7441 58.3941C55.3794 57.9382 55.197 57.4824 55.197 57.0265C55.197 56.7529 55.2882 56.3882 55.5617 56.0235C55.7441 55.6588 56.0176 55.3853 56.4735 55.1118ZM80.3617 58.2118C80.1794 58.2118 79.997 58.3029 79.9058 58.3941C79.8147 58.4853 79.7235 58.6676 79.7235 58.85C79.7235 59.0324 79.8147 59.2147 79.9058 59.3059C79.997 59.3971 80.1794 59.4882 80.3617 59.4882C80.5441 59.4882 80.7264 59.3971 80.8176 59.3059C80.9088 59.2147 81 59.0324 81 58.85C81 58.6676 80.9088 58.4853 80.8176 58.3941C80.7264 58.3029 80.5441 58.2118 80.3617 58.2118Z" fill="white"/>
</g>
</svg>
