<svg width="100" height="100" viewBox="0 0 100 100" fill="none" xmlns="http://www.w3.org/2000/svg">
<mask id="mask0_1_1536" style="mask-type:alpha" maskUnits="userSpaceOnUse" x="0" y="0" width="100" height="100">
<path fill-rule="evenodd" clip-rule="evenodd" d="M50 100C13.1946 100 0 86.8062 0 50C0 14.583 13.1946 0 50 0C86.8062 0 100 13.1946 100 50C100 86.8062 86.8062 100 50 100Z" fill="white"/>
</mask>
<g mask="url(#mask0_1_1536)">
<rect width="100" height="100" fill="white"/>
<path d="M100 0H0V100H100V0Z" fill="#0F238C"/>
<path d="M60.8086 58.0632L62.9786 47.8952L63.8053 58.0632H68.4863L66.3163 41.9122H61.3046L58.9693 51.5945L56.634 41.9122H51.6223L49.4523 58.0632H54.1333L54.9703 47.8952L57.1403 58.0632H60.8086ZM70.6666 41.9225V58.0632H81V54.6739H75.0273V41.9225H70.6666ZM24.0323 41.9225L19 58.0632H24.0323L24.704 55.1595H29.0646L29.7363 58.0632H34.7686L29.7363 41.9122H24.0323V41.9225ZM26.8843 45.4772L28.393 52.1009H25.3756C25.3756 52.0905 26.8843 45.4772 26.8843 45.4772ZM46.435 46.4795C42.2603 42.9249 35.74 44.3715 35.678 47.6265C34.7273 41.5815 42.2293 40.3105 46.435 42.2222C46.5073 43.1935 46.5796 44.2372 46.435 46.4795ZM42.9733 48.4119C44.699 49.0629 47.7783 49.8999 47.7783 53.3615C47.7783 55.4902 45.6703 57.4949 43.2316 58.2285C40.2143 59.1379 37.197 58.2389 35.3473 57.4639V53.5372C36.9076 54.6222 38.282 55.2009 39.987 55.2319C41.01 55.2525 42.5703 54.7565 42.5703 53.3719C42.5703 52.1835 41.444 51.8219 40.793 51.4705C37.073 49.4865 38.1993 45.5082 41.5576 45.1775C40.5863 45.4979 40.3796 46.0145 40.3796 46.4899C40.39 47.6472 41.9193 48.0089 42.9733 48.4119Z" fill="white"/>
</g>
</svg>
