<svg width="101" height="100" viewBox="0 0 101 100" fill="none" xmlns="http://www.w3.org/2000/svg">
<mask id="mask0_1897_3356" style="mask-type:alpha" maskUnits="userSpaceOnUse" x="0" y="0" width="101" height="100">
<path fill-rule="evenodd" clip-rule="evenodd" d="M50.5 100C13.6946 100 0.5 86.8062 0.5 50C0.5 14.583 13.6946 0 50.5 0C87.3062 0 100.5 13.1946 100.5 50C100.5 86.8062 87.3062 100 50.5 100Z" fill="white"/>
</mask>
<g mask="url(#mask0_1897_3356)">
<rect width="100" height="100" transform="translate(0.5)" fill="white"/>
<path d="M100.5 0H0.5V100H100.5V0Z" fill="#00A1E0"/>
<path fill-rule="evenodd" clip-rule="evenodd" d="M53.1632 29.6576C50.0847 29.6576 47.2998 30.9507 45.3009 33.033C43.0238 30.0465 39.482 28.2957 35.7264 28.3001C29.0758 28.3001 23.6844 33.684 23.6844 40.3264C23.6824 41.9717 24.0194 43.5997 24.6744 45.1089C21.4616 46.9928 19.4913 50.4416 19.5 54.166C19.5 59.9412 24.1333 64.6226 29.8488 64.6219C30.5637 64.6221 31.2766 64.5478 31.976 64.4002C33.5457 68.6592 37.6372 71.697 42.4367 71.697C47.0456 71.697 51.0008 68.8979 52.6987 64.904C53.9891 65.5353 55.4395 65.8879 56.9726 65.8879C60.6349 65.8879 63.8273 63.8699 65.5014 60.8844C66.3524 61.0559 67.2326 61.1461 68.1351 61.1461C75.5167 61.1461 81.5 55.1099 81.5 47.6625C81.5 40.2152 75.5167 34.179 68.1351 34.179C66.2719 34.1767 64.4293 34.5684 62.7281 35.3283C60.8268 31.94 57.2554 29.6576 53.1632 29.6576ZM28.7313 50.109L28.4804 50.8054H28.4797C28.4478 50.8894 28.4787 50.9183 28.4974 50.9358C28.5013 50.9395 28.5047 50.9427 28.5069 50.9458C28.594 51.0091 28.682 51.0585 28.7707 51.1082C28.8006 51.125 28.8307 51.1419 28.8608 51.1594C29.4928 51.495 30.0902 51.5913 30.7147 51.5913C31.9861 51.5913 32.7767 50.9153 32.7767 49.8269V49.8059C32.7767 48.799 31.8844 48.4328 31.0483 48.1684L30.9398 48.1345L30.9389 48.1342C30.3087 47.9288 29.7654 47.7518 29.7654 47.3377V47.3153C29.7654 46.96 30.0827 46.6983 30.5764 46.6983C31.1394 46.7106 31.6921 46.8523 32.1915 47.1126C32.1915 47.1126 32.3156 47.1913 32.361 47.0726L32.6187 46.3762C32.6431 46.3098 32.6011 46.2596 32.5577 46.2325C32.079 45.9422 31.4185 45.7436 30.735 45.7436L30.6075 45.7449C29.444 45.7449 28.6309 46.4481 28.6309 47.4557V47.4774C28.6309 48.5393 29.528 48.8844 30.3668 49.1231L30.5024 49.1665C31.1134 49.3536 31.6423 49.5164 31.6423 49.9463V49.9666C31.6423 50.3619 31.2992 50.6549 30.7459 50.6549C30.5323 50.6549 29.8474 50.6501 29.1083 50.1829C29.0593 50.1542 29.022 50.13 28.9871 50.1073C28.9577 50.0883 28.93 50.0703 28.8981 50.0514C28.8615 50.029 28.7713 49.9897 28.7313 50.109ZM47.3499 50.109L47.0984 50.8054C47.0659 50.8894 47.0968 50.9184 47.1154 50.9358C47.1193 50.9395 47.1227 50.9427 47.1248 50.9458C47.2122 51.0089 47.2999 51.0581 47.3883 51.1077C47.4186 51.1247 47.449 51.1417 47.4795 51.1594C48.1107 51.495 48.7081 51.5913 49.3333 51.5913C50.6047 51.5913 51.3947 50.9153 51.3947 49.8269V49.8059C51.3947 48.799 50.503 48.4328 49.6669 48.1684L49.5584 48.1345C48.9271 47.929 48.384 47.752 48.384 47.3377V47.3153C48.384 46.96 48.7013 46.6983 49.195 46.6983C49.7583 46.7105 50.3112 46.8522 50.8108 47.1126C50.8108 47.1126 50.9336 47.1913 50.9804 47.0726C51.0027 47.0075 51.2143 46.4379 51.238 46.3762C51.2618 46.3098 51.219 46.2596 51.177 46.2325C50.6976 45.9422 50.0365 45.7436 49.353 45.7436L49.2262 45.7449C48.0626 45.7449 47.2489 46.4481 47.2489 47.4557V47.4774C47.2489 48.5393 48.146 48.8844 48.9861 49.1231L49.1218 49.1665C49.7327 49.3536 50.2609 49.5164 50.2609 49.9463V49.9666C50.2609 50.3619 49.9171 50.6549 49.3659 50.6549C49.1502 50.6549 48.4667 50.6501 47.7263 50.1829C47.6707 50.1501 47.6297 50.1238 47.5901 50.0983C47.566 50.0828 47.5423 50.0676 47.5161 50.0514C47.493 50.0371 47.3866 49.9951 47.3499 50.109ZM61.0261 48.6715C61.0261 48.2653 60.9745 47.8809 60.8701 47.531C60.7671 47.1784 60.6043 46.8678 60.3887 46.6088C60.1717 46.3484 59.8964 46.1402 59.5723 45.989C59.2475 45.8371 58.8657 45.7605 58.4345 45.7605C58.0032 45.7605 57.6215 45.8371 57.2967 45.989C56.9817 46.1325 56.7026 46.3442 56.4796 46.6088C56.2646 46.8678 56.1026 47.1784 55.9981 47.531C55.8944 47.8809 55.8422 48.2647 55.8422 48.6715C55.839 49.0572 55.8915 49.4413 55.9981 49.812C56.0943 50.1491 56.2584 50.4629 56.4802 50.7342C56.7028 50.9977 56.9818 51.2077 57.2967 51.3485C57.6208 51.4977 58.0046 51.5723 58.4345 51.5723C58.8644 51.5723 59.2468 51.4977 59.5723 51.3485C59.8871 51.2077 60.1662 50.9977 60.3887 50.7342C60.6108 50.4629 60.7746 50.1487 60.8701 49.8113C60.9745 49.4615 61.0261 49.0783 61.0261 48.6715ZM59.4692 47.234C59.6957 47.573 59.8096 48.0565 59.8096 48.6715C59.8096 49.2858 59.6943 49.7727 59.4692 50.1144C59.2454 50.4542 58.9064 50.6196 58.4345 50.6196C57.9625 50.6196 57.6262 50.4548 57.4065 50.1144C57.1834 49.7727 57.0702 49.2858 57.0702 48.6715C57.0702 48.0565 57.1834 47.573 57.4051 47.234C57.6262 46.8977 57.9625 46.7349 58.4345 46.7349C58.9064 46.7349 59.2454 46.8977 59.4692 47.234ZM69.8492 51.175L69.5888 50.4548C69.5529 50.3518 69.4532 50.3891 69.4532 50.3891C69.2986 50.4494 69.1345 50.5037 68.9596 50.5315C68.7826 50.5593 68.586 50.5728 68.3778 50.5728C67.8638 50.5728 67.4556 50.4203 67.1634 50.1185C66.8704 49.8161 66.705 49.3272 66.707 48.6674C66.709 48.066 66.8548 47.6137 67.1152 47.2686C67.3729 46.9261 67.7675 46.7512 68.293 46.7512C68.7304 46.7512 69.0654 46.8014 69.4146 46.9112C69.4146 46.9112 69.4973 46.9478 69.538 46.838C69.5718 46.7442 69.6023 46.6602 69.6324 46.5775C69.6849 46.4331 69.7359 46.293 69.7997 46.1131C69.8282 46.0311 69.7584 45.9972 69.7333 45.9877C69.5956 45.9341 69.2695 45.846 69.0247 45.808C68.7955 45.7741 68.5283 45.7558 68.2279 45.7558C67.7831 45.7558 67.3844 45.8317 67.0454 45.9829C66.7187 46.1249 66.4269 46.3364 66.1903 46.6027C65.9625 46.8617 65.7896 47.1723 65.6743 47.5249C65.559 47.8741 65.5 48.2599 65.5 48.6674C65.5 49.5483 65.7387 50.2582 66.2066 50.7803C66.6772 51.3038 67.3824 51.5689 68.3032 51.5689C68.8463 51.5689 69.4044 51.4577 69.8065 51.3018C69.8065 51.3018 69.8831 51.2631 69.8492 51.175ZM75.1286 48.8645C75.1439 48.7559 75.2377 48.0923 75.0202 47.3309C74.9301 46.9912 74.707 46.6468 74.5605 46.4894C74.3286 46.2399 74.1021 46.0656 73.877 45.9694C73.5847 45.8432 73.2335 45.7605 72.849 45.7605C72.4002 45.7605 71.992 45.8365 71.6624 45.9917C71.3429 46.1377 71.0601 46.3531 70.8345 46.6224C70.6168 46.8861 70.4534 47.2001 70.3483 47.5561C70.2432 47.9093 70.191 48.2958 70.191 48.7027C70.1872 49.0911 70.2418 49.4778 70.353 49.85C70.4563 50.1896 70.6345 50.5018 70.8745 50.7634C71.1256 51.03 71.4349 51.2349 71.7783 51.3621C72.1398 51.5025 72.5785 51.5743 73.0823 51.5723C74.1211 51.5696 74.667 51.3377 74.8921 51.2136C74.9321 51.1912 74.97 51.1526 74.9226 51.0421L74.6886 50.3836C74.6514 50.286 74.553 50.3213 74.553 50.3213C74.5299 50.3298 74.5059 50.339 74.4808 50.3486C74.2255 50.4462 73.8541 50.5882 73.0775 50.5864C72.5195 50.5857 72.1072 50.4209 71.8475 50.1639C71.5831 49.9015 71.4522 49.515 71.4298 48.9692L75.0229 48.9719C75.0229 48.9719 75.1179 48.9705 75.1267 48.8783C75.1269 48.876 75.1276 48.8714 75.1286 48.8645ZM74.0099 48.0816H71.4468H71.4461C71.4969 47.7398 71.5905 47.4564 71.7356 47.234C71.9574 46.8977 72.2923 46.7125 72.7643 46.7125C73.2355 46.7125 73.5461 46.8977 73.7712 47.234C73.919 47.4564 73.9835 47.752 74.0099 48.0816ZM46.3489 48.8649C46.3638 48.7578 46.4564 48.0934 46.2393 47.3309C46.1497 46.9912 45.9267 46.6468 45.7802 46.4894C45.549 46.2399 45.3225 46.0656 45.0974 45.9694C44.772 45.8307 44.4218 45.7597 44.0681 45.7605C43.6205 45.7605 43.2123 45.8365 42.8814 45.9917C42.5623 46.1379 42.2797 46.3534 42.0542 46.6224C41.8306 46.8976 41.665 47.2152 41.5673 47.5561C41.4629 47.9093 41.41 48.2958 41.41 48.7027C41.4063 49.0912 41.4614 49.478 41.5734 49.85C41.6765 50.1894 41.8542 50.5015 42.0935 50.7634C42.345 51.0298 42.6545 51.2347 42.9981 51.3621C43.3588 51.5025 43.7975 51.5743 44.302 51.5723C45.3395 51.5696 45.886 51.3377 46.1125 51.2136C46.1518 51.1912 46.1898 51.1526 46.1423 51.0421L45.9077 50.3836C45.8711 50.286 45.7727 50.3213 45.7727 50.3213C45.7501 50.3297 45.7267 50.3386 45.7021 50.348C45.4472 50.4457 45.0747 50.5882 44.2966 50.5864C43.7385 50.5857 43.3269 50.4209 43.0672 50.1639C42.8021 49.9015 42.6719 49.515 42.6488 48.9692L46.2426 48.9719C46.2426 48.9719 46.3376 48.9705 46.3471 48.8783C46.3473 48.8761 46.3479 48.8716 46.3489 48.8649ZM45.2296 48.0816H42.6651H42.6644C42.7166 47.7398 42.8095 47.4564 42.956 47.234C43.1764 46.8977 43.512 46.7125 43.984 46.7125C44.4552 46.7125 44.7672 46.8977 44.9909 47.234C45.1381 47.4564 45.2025 47.752 45.2296 48.0816ZM36.9204 47.9799C36.6112 47.9351 36.3278 47.91 36.3278 47.91C36.1813 47.8985 35.9928 47.8937 35.767 47.8937C35.4592 47.8937 35.1615 47.9324 34.8815 48.007C34.6129 48.0772 34.3591 48.195 34.1322 48.3548C33.9125 48.5115 33.7375 48.7115 33.6101 48.9475C33.4833 49.1848 33.4175 49.4635 33.4175 49.7761C33.4175 50.0948 33.4731 50.3708 33.5836 50.5966C33.6903 50.82 33.8512 51.0132 34.0515 51.1587C34.2713 51.313 34.5203 51.421 34.7831 51.476C35.0652 51.5404 35.3853 51.573 35.7345 51.573C36.1003 51.573 36.4654 51.5426 36.8262 51.4821C37.1795 51.4225 37.6121 51.3343 37.7321 51.3065C37.8508 51.2787 37.983 51.2421 37.983 51.2421C38.0732 51.2204 38.0657 51.1255 38.0657 51.1255L38.0637 47.8381C38.0637 47.118 37.8711 46.5837 37.4927 46.2521C37.115 45.9219 36.5597 45.7551 35.8423 45.7551C35.5192 45.7583 35.197 45.788 34.8787 45.8439C34.8787 45.8439 34.0949 45.9965 33.7715 46.2487C33.7715 46.2487 33.7002 46.2935 33.7396 46.3918L33.9939 47.0753C34.0251 47.1641 34.1118 47.1336 34.1118 47.1336C34.1118 47.1336 34.1383 47.1228 34.1702 47.1038C34.8618 46.7281 35.7365 46.739 35.7365 46.739C36.1244 46.739 36.4241 46.8183 36.6248 46.9716C36.8208 47.1228 36.9204 47.3486 36.9204 47.828V47.9799ZM35.9515 50.6447C35.2198 50.6895 34.8957 50.4345 34.8977 50.4352C34.7567 50.3219 34.737 50.2948 34.6916 50.2223C34.6191 50.1124 34.5831 49.9551 34.5831 49.7537C34.5831 49.4391 34.6882 49.2119 34.9038 49.0587C34.9018 49.0594 35.2137 48.7902 35.9454 48.799C36.4614 48.8064 36.9211 48.8817 36.9211 48.8817V50.5159C36.9211 50.5159 36.4655 50.6135 35.9515 50.6447ZM65.0417 46.8122C65.1047 46.6488 65.279 46.1565 65.3129 46.0582L65.3137 46.0563C65.3337 46.0062 65.3094 45.9494 65.2593 45.9294C65.1976 45.9056 64.8918 45.8412 64.6565 45.827C64.2042 45.7998 63.954 45.8744 63.7303 45.9761C63.5072 46.0765 63.2603 46.2392 63.1227 46.4237V45.9856C63.1227 45.9253 63.0793 45.8771 63.0183 45.8771H62.0981C62.0378 45.8771 61.9937 45.9253 61.9937 45.9856V51.3458C61.9945 51.4065 62.0442 51.4551 62.1049 51.4543H63.0481L63.0488 51.4543C63.1087 51.454 63.157 51.4051 63.1566 51.3452V48.6681C63.1566 48.3087 63.1973 47.9507 63.2759 47.7256C63.3532 47.5018 63.4597 47.3235 63.5912 47.1967C63.7152 47.0731 63.8674 46.9816 64.0347 46.9302C64.2015 46.8787 64.3866 46.8624 64.5161 46.8624C64.7047 46.8624 64.9108 46.9099 64.9108 46.9099C64.9806 46.9173 65.0186 46.8746 65.0417 46.8122ZM56.5169 43.6992C56.544 43.6178 56.4755 43.5846 56.4504 43.5744C56.3351 43.5391 56.2314 43.5154 56.0951 43.4896C55.9561 43.4645 55.792 43.4523 55.6062 43.4523C54.9566 43.4523 54.4447 43.6354 54.0846 43.9982C53.7266 44.3582 53.4845 44.9068 53.3625 45.6283L53.3184 45.871H52.504C52.504 45.871 52.403 45.867 52.382 45.9755L52.2491 46.7227C52.2382 46.7946 52.2708 46.8393 52.3657 46.8393H53.159L52.3535 51.337C52.2911 51.6984 52.2185 51.9968 52.1392 52.2226C52.0599 52.4457 51.9826 52.6118 51.8876 52.7345C51.7968 52.8512 51.7086 52.9386 51.5594 52.9868C51.4354 53.0288 51.293 53.0478 51.1363 53.0478C51.0489 53.0478 50.9336 53.0329 50.8475 53.0159C50.7627 52.999 50.718 52.9814 50.6542 52.9542C50.6542 52.9542 50.5606 52.919 50.524 53.0112C50.4955 53.0878 50.2826 53.6703 50.2582 53.7415C50.2325 53.8134 50.2684 53.8696 50.3125 53.8852C50.4201 53.9239 50.5299 53.9561 50.6413 53.9815C50.8414 54.029 51.0109 54.0324 51.1682 54.0324C51.4984 54.0324 51.8008 53.9856 52.0497 53.894C52.306 53.7975 52.5341 53.6385 52.7135 53.4316C52.9237 53.2004 53.0546 52.9583 53.1814 52.6267C53.3221 52.2345 53.4278 51.8306 53.4974 51.4197L54.3063 46.8387H55.4903C55.4903 46.8387 55.5886 46.8427 55.6103 46.7342L55.7445 45.987C55.754 45.9158 55.7235 45.871 55.6266 45.871H54.4779C54.479 45.8669 54.4812 45.8528 54.4848 45.8305C54.5033 45.7149 54.5569 45.379 54.6678 45.0607C54.7224 44.9157 54.8086 44.7846 54.92 44.677C55.0037 44.5914 55.1071 44.5277 55.2211 44.4912C55.335 44.4532 55.4638 44.4349 55.6062 44.4349C55.7689 44.4355 55.9305 44.4607 56.0856 44.5095C56.2029 44.5447 56.2178 44.5108 56.2409 44.4539L56.5169 43.6992ZM40.2932 51.4543C40.3542 51.4543 40.3963 51.4062 40.3963 51.3452V43.6754C40.3963 43.6158 40.3542 43.5669 40.2932 43.5669H39.3398C39.2801 43.5669 39.2381 43.6158 39.2381 43.6748V51.3458C39.2381 51.4055 39.2795 51.4543 39.3405 51.4543H40.2932Z" fill="white"/>
</g>
</svg>
