<svg width="100" height="100" viewBox="0 0 100 100" fill="none" xmlns="http://www.w3.org/2000/svg">
<mask id="mask0_1_1542" style="mask-type:alpha" maskUnits="userSpaceOnUse" x="0" y="0" width="100" height="100">
<path fill-rule="evenodd" clip-rule="evenodd" d="M50 100C13.1946 100 0 86.8062 0 50C0 14.583 13.1946 0 50 0C86.8062 0 100 13.1946 100 50C100 86.8062 86.8062 100 50 100Z" fill="white"/>
</mask>
<g mask="url(#mask0_1_1542)">
<path d="M100 0H0V100H100V0Z" fill="#76B936"/>
<path d="M42.3158 41.9281V38.3272C42.6694 38.295 43.0231 38.295 43.3768 38.295C53.2472 37.9735 59.7418 46.8151 59.7418 46.8151C59.7418 46.8151 52.7649 56.5248 45.2415 56.5248C44.2448 56.5248 43.2482 56.3641 42.3158 56.0426V45.079C46.1739 45.5612 46.9456 47.2331 49.2283 51.0913L54.3725 46.783C54.3725 46.783 50.6108 41.8638 44.277 41.8638C43.634 41.8317 42.9909 41.8638 42.3158 41.9281ZM42.3158 30V35.4014C42.6694 35.3693 43.0231 35.3693 43.3768 35.3371C57.1054 34.8548 66.0756 46.5901 66.0756 46.5901C66.0756 46.5901 55.7872 59.0969 45.0808 59.0969C44.1484 59.0969 43.2482 59.0005 42.3158 58.8397V62.1835C43.0874 62.2799 43.859 62.3442 44.5985 62.3442C54.5654 62.3442 61.7995 57.2322 68.7763 51.2199C69.9337 52.1523 74.6921 54.4028 75.6567 55.3674C69.0335 60.9296 53.5366 65.3986 44.7593 65.3986C43.9233 65.3986 43.1196 65.3664 42.3158 65.27V69.9641H80.2222V30H42.3158ZM42.3158 56.0104V58.8719C33.0883 57.2322 30.5484 47.6189 30.5484 47.6189C30.5484 47.6189 34.9853 42.7319 42.3158 41.9281V45.0468H42.2836C38.4255 44.5645 35.4032 48.1976 35.4032 48.1976C35.4032 48.1976 37.1073 54.2742 42.3158 56.0104ZM25.9508 47.2331C25.9508 47.2331 31.4165 39.1631 42.3479 38.3272V35.4014C30.2269 36.366 19.7777 46.6222 19.7777 46.6222C19.7777 46.6222 25.6935 63.7589 42.3479 65.3343V62.2156C30.0983 60.6723 25.9508 47.2331 25.9508 47.2331Z" fill="white"/>
</g>
</svg>
