<svg width="100" height="100" viewBox="0 0 100 100" fill="none" xmlns="http://www.w3.org/2000/svg">
<mask id="mask0_1_1530" style="mask-type:alpha" maskUnits="userSpaceOnUse" x="0" y="0" width="100" height="100">
<path fill-rule="evenodd" clip-rule="evenodd" d="M50 100C13.1946 100 0 86.8062 0 50C0 14.583 13.1946 0 50 0C86.8062 0 100 13.1946 100 50C100 86.8062 86.8062 100 50 100Z" fill="white"/>
</mask>
<g mask="url(#mask0_1_1530)">
<path d="M100 0H0V100H100V0Z" fill="#1B74CE"/>
<g clip-path="url(#clip0_1_1530)">
<path d="M50.0296 40.1323C51.4254 40.1323 52.5829 39.4102 52.7531 38.4475L54.1489 22.6316C54.1489 21.05 52.3446 19.7778 50.0636 19.7778C47.7826 19.7778 45.9783 21.05 45.9783 22.6316L47.3741 38.4475C47.4762 39.4102 48.6337 40.1323 50.0296 40.1323Z" fill="#FFB818"/>
<path d="M41.5525 45.0834C42.2674 43.8456 42.1993 42.4703 41.4504 41.8858L28.6156 32.74C27.2879 31.9492 25.2792 32.912 24.1217 34.9061C22.9642 36.9003 23.1685 39.1352 24.5303 39.8916L38.7608 46.5962C39.646 46.94 40.8716 46.2867 41.5525 45.0834Z" fill="#FFB818"/>
<path d="M58.5066 45.049C59.2216 46.2868 60.4131 46.9056 61.2983 46.5618L75.5289 39.8572C76.8566 39.0664 77.0609 36.8659 75.9374 34.8718C74.7799 32.8776 72.7713 31.9492 71.4435 32.7057L58.5747 41.817C57.8598 42.4703 57.7917 43.8456 58.5066 45.049Z" fill="#FFB818"/>
<path d="M50.0296 59.8678C51.4254 59.8678 52.5829 60.5899 52.7531 61.5526L54.1489 77.3685C54.1489 78.9501 52.3446 80.2223 50.0636 80.2223C47.7826 80.2223 45.9783 78.9501 45.9783 77.3685L47.3741 61.5526C47.4762 60.5899 48.6337 59.8678 50.0296 59.8678Z" fill="#FFB818"/>
<path d="M58.5066 54.9511C59.2216 53.7134 60.4131 53.0945 61.2983 53.4383L75.5289 60.1429C76.8566 60.9337 77.0609 63.1686 75.9374 65.1627C74.7799 67.1569 72.7713 68.0852 71.4435 67.3288L58.5747 58.2175C57.8598 57.5298 57.7917 56.1545 58.5066 54.9511Z" fill="#FFB818"/>
<path d="M41.5525 54.9511C42.2674 56.1889 42.1993 57.5642 41.4504 58.1831L28.5816 67.2945C27.2538 68.0853 25.2452 67.1225 24.0877 65.1284C22.9302 63.1342 23.1344 60.8993 24.4962 60.1429L38.7268 53.4383C39.646 53.0601 40.8716 53.7134 41.5525 54.9511Z" fill="#FFB818"/>
</g>
</g>
<defs>
<clipPath id="clip0_1_1530">
<rect width="53.3333" height="60.4444" fill="white" transform="translate(23.3333 19.7778)"/>
</clipPath>
</defs>
</svg>
