<svg width="100" height="100" viewBox="0 0 100 100" fill="none" xmlns="http://www.w3.org/2000/svg">
<mask id="mask0_1_1512" style="mask-type:alpha" maskUnits="userSpaceOnUse" x="0" y="0" width="100" height="100">
<path fill-rule="evenodd" clip-rule="evenodd" d="M50 100C13.1946 100 0 86.8062 0 50C0 14.583 13.1946 0 50 0C86.8062 0 100 13.1946 100 50C100 86.8062 86.8062 100 50 100Z" fill="white"/>
</mask>
<g mask="url(#mask0_1_1512)">
<rect width="100" height="100" fill="white"/>
<path d="M100 0H0V100H100V0Z" fill="#F96302"/>
<path fill-rule="evenodd" clip-rule="evenodd" d="M77.9999 22H21.9999V78H77.9999V22ZM56.7759 23.3159H23.3159C23.3159 27.9266 23.3153 32.5378 23.3147 37.1493V37.1499V37.1505V37.1512V37.1518V37.1524V37.153V37.1537V37.1543V37.1549V37.1555V37.1562V37.1568V37.1574V37.158V37.1587V37.1593V37.1599V37.1606V37.1612V37.1618V37.1624V37.1631V37.1637V37.1643V37.1649V37.1656C23.3134 46.4 23.3122 55.6352 23.3159 64.8679C23.9319 64.2435 24.5535 63.6233 25.1751 63.0032C25.7967 62.383 26.4183 61.7628 27.0343 61.1384C27.2135 60.9535 27.4487 60.8024 27.7119 60.7855C28.0927 60.7575 28.4455 61.1664 28.3391 61.5415C28.3077 61.6526 28.2558 61.759 28.2039 61.8657C28.117 62.044 28.0297 62.2231 28.0367 62.4264C28.0938 62.6596 28.2683 62.828 28.4362 62.9903L28.4365 62.9906L28.4367 62.9907C28.4662 63.0192 28.4955 63.0475 28.5239 63.0759C29.4321 63.9841 30.3403 64.8929 31.2487 65.8018L31.2967 65.85L31.3588 65.9121L31.3681 65.9214C33.2653 67.8199 35.1634 69.7192 37.0639 71.6159L37.0653 71.6173C37.205 71.7514 37.3614 71.9016 37.5679 71.9184C37.7525 71.9184 37.9153 71.8388 38.0791 71.7588L38.0791 71.7588C38.2036 71.698 38.3285 71.6369 38.4639 71.6104C38.8391 71.5319 39.2199 71.9072 39.1695 72.2824C39.1359 72.6072 38.9063 72.8535 38.6823 73.0664L35.1039 76.6447H50.2631C50.3415 76.4879 50.4367 76.2864 50.2967 76.1295C50.1098 75.912 49.9043 75.711 49.6978 75.509C49.564 75.3781 49.4298 75.2468 49.2999 75.1104C48.9714 74.7819 48.6429 74.4537 48.3145 74.1256L48.3136 74.1248C47.3267 73.1389 46.3405 72.1538 45.3575 71.1624L45.3343 71.1413C45.2285 71.0453 45.1115 70.9391 44.9655 70.9495C44.8835 70.9675 44.8073 71.0018 44.7317 71.036C44.642 71.0765 44.5531 71.1166 44.4559 71.1287C44.2543 71.1175 44.0639 70.9215 44.0975 70.7144C44.1612 70.5283 44.2976 70.3893 44.432 70.2525L44.4324 70.252C44.4516 70.2325 44.4707 70.2131 44.4895 70.1935C44.808 69.8825 45.1221 69.567 45.4362 69.2515C45.829 68.857 46.2217 68.4626 46.6231 68.0767C48.8295 70.2887 51.0359 72.4952 53.2479 74.7015C52.9235 75.026 52.599 75.349 52.2746 75.6721L52.2733 75.6734L52.272 75.6747L52.2707 75.6759L52.2694 75.6772C51.946 75.9993 51.6225 76.3213 51.2991 76.6447H76.6447V51.3047C76.4178 51.5316 76.1904 51.7584 75.9627 51.9855L75.9621 51.9861L75.9614 51.9867L75.961 51.9872L75.9606 51.9876L75.9601 51.9881L75.9597 51.9885L75.9587 51.9894L75.9567 51.9914L75.9552 51.9929C75.4997 52.4472 75.0434 52.9024 74.5895 53.3599C74.4719 53.4832 74.3151 53.6064 74.1303 53.5727C73.9231 53.5672 73.7663 53.3319 73.8391 53.1359C73.8561 53.0792 73.882 53.0238 73.9081 52.9682C73.9592 52.8589 74.0108 52.7488 73.9959 52.6264C73.9439 52.4963 73.8449 52.3998 73.7457 52.3031C73.7167 52.2749 73.6877 52.2466 73.6599 52.2175C72.1983 50.7615 70.7423 49.3055 69.2863 47.8495C69.1279 47.6845 68.9651 47.5247 68.8025 47.3649L68.8024 47.3648C68.5511 47.1181 68.3 46.8715 68.0655 46.6063C68.5985 46.0937 69.1196 45.5693 69.6418 45.0437L69.642 45.0435L69.6423 45.0432L69.6425 45.043L69.6426 45.043L69.6427 45.0429L69.6427 45.0428L69.6428 45.0427L69.6429 45.0427L69.6429 45.0426L69.643 45.0425L69.6431 45.0425L69.6431 45.0424L69.6432 45.0423L69.6433 45.0423L69.6433 45.0422L69.6434 45.0421L69.6435 45.0421L69.6435 45.042L69.6436 45.0419L69.6437 45.0419L69.6437 45.0418L69.6438 45.0417L69.6439 45.0417L69.644 45.0416L69.644 45.0415L69.6441 45.0414L69.6463 45.0392C69.8414 44.8429 70.0366 44.6464 70.2327 44.4503C71.2734 45.4782 72.3067 46.5134 73.3401 47.5486C74.1139 48.3238 74.8878 49.099 75.6647 49.8712C75.7126 49.9174 75.7591 49.966 75.8058 50.0148C75.923 50.1371 76.0414 50.2607 76.1855 50.3527C76.3057 50.4106 76.433 50.3588 76.5533 50.3098C76.5843 50.2971 76.6149 50.2847 76.6447 50.2744C76.6485 46.9032 76.6472 43.5319 76.646 40.1607C76.6453 38.4751 76.6447 36.7895 76.6447 35.1039C76.3715 35.3792 76.0967 35.653 75.8221 35.9267L75.822 35.9268L75.8219 35.927L75.8218 35.927L75.8218 35.927L75.8218 35.9271L75.8217 35.9271L75.8217 35.9271L75.8217 35.9272L75.8216 35.9272C75.3423 36.4049 74.8634 36.8822 74.3935 37.3663C74.2201 37.2223 74.062 37.0613 73.9041 36.9003L73.904 36.9002C73.7611 36.7546 73.6182 36.6089 73.4639 36.4759C73.5423 36.3415 73.6263 36.2072 73.7159 36.0783C74.0519 35.5463 74.2759 34.9359 74.3543 34.3143C74.4719 33.4015 74.2983 32.4663 73.9063 31.6375L73.8992 31.6214C73.7722 31.3346 73.6335 31.0212 73.7159 30.7023C73.7831 30.5399 73.9287 30.4223 74.0799 30.3495C74.3095 30.2432 74.5839 30.3327 74.7519 30.5063C75.033 30.785 75.312 31.0659 75.5912 31.347L75.5912 31.347L75.5912 31.347C75.9404 31.6986 76.29 32.0506 76.6447 32.3991C76.6485 30.379 76.6472 28.3588 76.646 26.3404V26.3391V26.3379V26.3366V26.3354V26.3341V26.3329V26.3316V26.3304V26.3292V26.3279V26.3267V26.3255V26.3242V26.323V26.3218V26.3205V26.3193V26.3181V26.3169V26.3156V26.3144V26.3132V26.3119V26.3107V26.3095V26.3083C76.6453 25.3103 76.6447 24.3128 76.6447 23.3159C75.4062 23.3182 74.1668 23.3168 72.9268 23.3155C71.0664 23.3135 69.2047 23.3115 67.3431 23.3215C67.7102 23.695 68.0809 24.0648 68.4521 24.4351L68.4521 24.4351L68.4522 24.4351L68.4522 24.4352L68.4523 24.4353L68.4525 24.4355L68.4532 24.4362C68.7329 24.7152 69.0129 24.9945 69.2919 25.2759C69.4319 25.4047 69.5103 25.6175 69.4263 25.7967C69.3255 26.0543 69.1071 26.3119 68.8159 26.3287C68.6081 26.3091 68.425 26.2154 68.2435 26.1225C68.1658 26.0827 68.0884 26.0431 68.0095 26.0095C67.3151 25.7072 66.5535 25.5111 65.7975 25.5895C64.9575 25.6512 64.1847 26.0263 63.5015 26.4967C63.3646 26.3547 63.2241 26.2162 63.0834 26.0774C62.919 25.9153 62.7542 25.7529 62.5943 25.5839C62.9163 25.2595 63.2404 24.9361 63.5643 24.6129C63.9953 24.1829 64.4259 23.7531 64.8511 23.3215C62.8352 23.3131 60.8161 23.3142 58.7963 23.3152L58.7959 23.3152C58.1226 23.3156 57.4492 23.3159 56.7759 23.3159ZM61.7823 26.3904C61.8327 26.3344 61.9223 26.284 61.9727 26.368C65.8759 30.2656 69.7791 34.1688 73.6767 38.072L73.6543 38.0944L73.6542 38.0944C72.2953 39.4534 70.9308 40.8179 69.5719 42.1824C69.3927 42.3504 69.1743 42.4904 68.9279 42.5072C68.5863 42.5352 68.2447 42.2272 68.2727 41.88C68.2782 41.7114 68.3519 41.5619 68.4259 41.412C68.5018 41.2581 68.5779 41.1038 68.5807 40.928C68.5911 40.725 68.4467 40.5703 68.3138 40.4281L68.2839 40.396C66.3546 38.4704 64.4277 36.5423 62.5001 34.6134C61.535 33.6477 60.5698 32.6819 59.6039 31.716L59.5666 31.6797C59.4139 31.5306 59.2436 31.3645 59.0159 31.38C58.8448 31.3826 58.6934 31.4583 58.5427 31.5337C58.3728 31.6186 58.2037 31.7031 58.0079 31.6824C57.7951 31.688 57.6215 31.52 57.5151 31.3464C57.3695 31.044 57.5039 30.68 57.7223 30.456L57.7807 30.3976C59.1164 29.0619 60.4521 27.7261 61.7823 26.3904ZM67.9813 27.1632C67.7293 27.1296 67.5165 27.32 67.4045 27.5272C67.2982 27.8184 67.4213 28.132 67.5782 28.384C67.8862 28.8936 68.1325 29.476 68.0933 30.0864C68.0803 30.2949 68.0066 30.4866 67.9324 30.6797C67.9109 30.7355 67.8894 30.7914 67.8693 30.848C68.037 31.0446 68.2251 31.2264 68.4132 31.4084L68.4133 31.4085L68.4134 31.4085L68.4134 31.4085L68.4134 31.4086L68.4134 31.4086L68.4135 31.4086L68.4135 31.4086C68.5521 31.5426 68.6907 31.6767 68.8213 31.8168C69.0845 31.6992 69.3645 31.5816 69.6558 31.5872C70.2213 31.5592 70.759 31.7832 71.235 32.0632L71.2774 32.0866C71.4887 32.2034 71.7104 32.326 71.9518 32.3208C72.2598 32.2872 72.551 32.0016 72.523 31.6824C72.4789 31.4131 72.2807 31.2251 72.0893 31.0436C72.0618 31.0175 72.0345 30.9916 72.0078 30.9656C70.8878 29.8456 69.7678 28.7256 68.6478 27.6C68.6315 27.5837 68.615 27.567 68.5984 27.5502C68.4268 27.3763 68.2366 27.1836 67.9813 27.1632ZM42.7255 30.4952C43.0401 30.1631 43.3638 29.8416 43.6871 29.5205L43.6872 29.5205C43.9854 29.2243 44.2833 28.9284 44.5735 28.6248C45.0347 29.0725 45.4851 29.5238 45.9363 29.9759C46.0494 30.0892 46.1625 30.2026 46.2759 30.316C46.4607 30.4952 46.2927 30.7976 46.0855 30.8704C45.9638 30.8861 45.8531 30.833 45.7438 30.7805C45.6971 30.7582 45.6508 30.7359 45.6039 30.7192C44.9991 30.4224 44.2487 30.3888 43.6439 30.7136C43.5823 30.74 43.525 30.7768 43.468 30.8134L43.4679 30.8134C43.3798 30.87 43.2923 30.9262 43.1903 30.9432C43.0876 30.861 42.9954 30.7663 42.9035 30.6719C42.8449 30.6118 42.7865 30.5518 42.7255 30.4952ZM43.7779 32.276C43.3038 31.799 42.8292 31.3215 42.3448 30.8536C41.8921 31.3207 41.4325 31.7786 40.9733 32.2362L40.9733 32.2362L40.9732 32.2363C40.7111 32.4974 40.4492 32.7584 40.1888 33.0208C40.0936 33.116 40.0152 33.2336 40.004 33.368C39.9816 33.5416 40.1384 33.7096 40.3064 33.7264C40.4012 33.7216 40.4876 33.6808 40.5733 33.6404C40.685 33.5877 40.7957 33.5355 40.9224 33.564C41.0361 33.6228 41.125 33.7145 41.2142 33.8065C41.2525 33.8459 41.2909 33.8854 41.3312 33.9224C42.7928 35.3896 44.2544 36.8512 45.7216 38.3128C45.8168 38.4136 45.9344 38.5424 45.8672 38.688C45.8529 38.7383 45.8293 38.7911 45.8052 38.8451C45.7354 39.0017 45.6612 39.1681 45.7944 39.3096C45.94 39.5168 46.2424 39.444 46.3936 39.276C47.1272 38.548 47.8608 37.82 48.5888 37.0808C47.8585 36.3569 47.1318 35.6293 46.4057 34.9022C45.8623 34.3582 45.3193 33.8145 44.7752 33.2728C44.441 32.9432 44.1096 32.6097 43.7779 32.276ZM45.2681 31.7495C45.1953 31.5647 45.3241 31.3407 45.5201 31.3127C45.6649 31.2904 45.782 31.4011 45.8824 31.4959L45.8841 31.4975C46.03 31.6435 46.176 31.7898 46.322 31.9361L46.3261 31.9402L46.3301 31.9442L46.3341 31.9482L46.3368 31.951C46.791 32.4062 47.246 32.8622 47.7041 33.3119C47.7267 33.3369 47.7514 33.3614 47.7763 33.3862C47.8685 33.4778 47.9641 33.5728 47.9729 33.7095C47.9953 33.8831 47.8273 34.0511 47.6481 34.0343C47.4992 34.0343 47.3727 33.9602 47.2459 33.886C47.1725 33.843 47.0989 33.7999 47.0209 33.7711C46.7073 33.6255 46.3265 33.6143 46.0185 33.7823C45.986 33.7498 45.9536 33.7172 45.921 33.6844L45.921 33.6844C45.7909 33.5534 45.6601 33.4217 45.5257 33.3007C45.5985 33.0543 45.6657 32.7911 45.6041 32.5335C45.5778 32.3627 45.4976 32.2151 45.4177 32.0679L45.4177 32.0679C45.3613 31.9642 45.3051 31.8607 45.2681 31.7495ZM56.5463 31.8953C56.3335 31.9233 56.1431 32.0353 55.9919 32.1864C55.3991 32.7769 54.8083 33.3683 54.2174 33.96L54.2169 33.9605L54.2148 33.9625C53.4278 34.7504 52.6406 35.5385 51.8479 36.3248C52.399 37.3739 52.9641 38.416 53.5292 39.4581L53.5293 39.4581L53.5293 39.4582L53.5293 39.4583L53.5294 39.4583L53.5294 39.4584L53.5294 39.4584L53.5295 39.4585L53.5295 39.4586L53.5295 39.4586L53.5296 39.4587L53.5296 39.4588L53.5296 39.4588L53.5297 39.4589L53.5297 39.459L53.5297 39.459L53.5298 39.4591L53.5298 39.4591L53.5298 39.4592L53.5299 39.4593L53.5301 39.4597L53.5302 39.4598C54.096 40.5032 54.6617 41.5465 55.2135 42.5968L55.2919 42.5856C55.2752 42.6052 55.2599 42.6247 55.2445 42.6442L55.2445 42.6442C55.229 42.6639 55.2136 42.6836 55.1967 42.7032C55.1438 42.6455 55.0827 42.6002 55.0239 42.5566L54.9951 42.5353C54.0041 42.0516 53.013 41.573 52.0226 41.0946L52.0225 41.0946L52.0225 41.0946L52.0224 41.0945L52.0224 41.0945L52.0223 41.0945L52.0223 41.0945L52.0222 41.0944L52.0222 41.0944L52.0221 41.0944L52.022 41.0944L52.022 41.0943L52.0219 41.0943L52.0219 41.0943L52.0218 41.0943L52.0214 41.094L52.0209 41.0938L52.0204 41.0936L52.0199 41.0933L52.0194 41.0931L52.0189 41.0929C50.9118 40.5582 49.8055 40.0238 48.7007 39.4833C47.8942 40.283 47.0898 41.0868 46.2849 41.891C45.7485 42.427 45.2118 42.9632 44.6743 43.4984C44.5287 43.644 44.3887 43.812 44.3327 44.0136C44.2487 44.3104 44.4391 44.6353 44.7135 44.7584C44.9431 44.8312 45.1895 44.7416 45.3743 44.596C45.4129 44.5683 45.4509 44.5373 45.4893 44.5059C45.6294 44.3914 45.7745 44.2729 45.9679 44.2993C46.5971 44.3755 47.1614 44.6628 47.7195 44.9469L47.7196 44.9469L47.7198 44.947L47.72 44.9471L47.7202 44.9472L47.7203 44.9473L47.7205 44.9474L47.7207 44.9475L47.7208 44.9475L47.721 44.9476C47.8181 44.997 47.9149 45.0464 48.0119 45.0944C49.6749 45.9169 51.3378 46.7421 53.0011 47.5675C55.4939 48.8045 57.9875 50.0419 60.4831 51.2713C60.6287 51.12 60.7743 50.9688 60.9255 50.8288C60.8975 50.7616 60.8695 50.7 60.8359 50.644C59.7971 48.7148 58.7541 46.7884 57.7111 44.862C56.6681 42.9356 55.6251 41.0092 54.5863 39.08C55.8405 40.3315 57.0933 41.5843 58.3462 42.8371C59.6049 44.0959 60.8637 45.3547 62.1239 46.612C62.2471 46.7464 62.3759 46.8976 62.3927 47.0824C62.3981 47.2722 62.3156 47.4383 62.2335 47.6037C62.146 47.78 62.0589 47.9554 62.0791 48.1576C62.1183 48.4544 62.4095 48.712 62.7119 48.6953C62.9863 48.6953 63.2215 48.5273 63.4063 48.3424C64.1247 47.6268 64.8417 46.9084 65.5588 46.19C66.2782 45.4692 66.9975 44.7484 67.7183 44.0304C67.8919 43.8568 68.0431 43.6384 68.0655 43.3864C68.1103 43.0168 67.7463 42.6528 67.3767 42.7144C67.2369 42.739 67.109 42.801 66.9811 42.8631C66.8169 42.9428 66.6528 43.0224 66.4639 43.0224C66.2742 43.0224 66.1327 42.8899 65.9986 42.7643C65.9744 42.7416 65.9503 42.7191 65.9263 42.6976C63.6448 40.4072 61.3562 38.1239 59.066 35.8392L59.0658 35.8389L59.0655 35.8386L59.0652 35.8384L59.065 35.8381L59.0647 35.8379L59.0645 35.8376L59.0642 35.8373L59.0639 35.8371L59.0637 35.8368L59.0634 35.8365L59.0631 35.8363L59.0629 35.836L59.0626 35.8357C58.4927 35.2672 57.9227 34.6985 57.3527 34.1296C57.3255 34.1006 57.2972 34.0717 57.2687 34.0425L57.2687 34.0425C57.1269 33.8975 56.9793 33.7468 56.9327 33.5416C56.92 33.3417 57.0045 33.1687 57.0892 32.9952C57.154 32.8625 57.2189 32.7296 57.2407 32.584C57.3135 32.2033 56.9215 31.8393 56.5463 31.8953ZM48.6392 33.1328C48.74 32.948 49.0256 32.9256 49.16 33.0824C49.5355 33.4616 49.9159 33.8408 50.2963 34.22C50.489 34.412 50.6816 34.604 50.8736 34.796C50.2352 35.44 49.5968 36.0784 48.9472 36.7168C48.894 36.6554 48.834 36.5985 48.7739 36.5414L48.7739 36.5414L48.7739 36.5413C48.6695 36.4423 48.5646 36.3427 48.4936 36.2184L48.5176 36.1777C48.695 35.8771 48.8766 35.5696 48.9248 35.216C49.02 34.7064 48.936 34.1688 48.7176 33.6984C48.7051 33.662 48.6896 33.6245 48.6738 33.5864L48.6738 33.5863C48.6118 33.4363 48.5455 33.2756 48.6392 33.1328ZM39.6344 33.6928C39.472 33.732 39.3488 33.8552 39.2368 33.9728C38.9104 34.3017 38.5818 34.6283 38.253 34.9552C37.8427 35.3631 37.432 35.7714 37.0248 36.1848C36.8512 36.3416 36.784 36.644 36.9968 36.7952C37.1427 36.9133 37.2887 36.8469 37.4366 36.7798C37.5554 36.7258 37.6754 36.6713 37.7976 36.7112C37.9109 36.7784 38.0022 36.8707 38.095 36.9646C38.1261 36.996 38.1573 37.0275 38.1896 37.0584C38.3378 37.2067 38.4861 37.3553 38.6344 37.504L38.6347 37.5043L38.635 37.5045L38.6352 37.5048L38.6367 37.5063C39.0872 37.9578 39.5384 38.4101 39.9928 38.856C39.8696 38.9764 39.7478 39.0982 39.626 39.22C39.5042 39.3418 39.3824 39.4636 39.2592 39.584C39.416 39.7576 39.584 39.92 39.752 40.0824C39.9984 39.8416 40.2392 39.6008 40.48 39.3544C40.8734 39.7415 41.2632 40.1322 41.6525 40.5224L41.6526 40.5225L41.6528 40.5227L41.653 40.5229L41.6532 40.5231L41.6534 40.5233L41.6536 40.5234L41.6538 40.5236L41.654 40.5238L41.6542 40.524L41.6543 40.5242L41.6545 40.5244L41.6547 40.5246L41.6549 40.5248L41.6551 40.525L41.6553 40.5252L41.6555 40.5254L41.6557 40.5256L41.6559 40.5258L41.6561 40.526C41.9471 40.8177 42.2378 41.1091 42.5296 41.3984L42.5463 41.4162L42.5735 41.4448L42.5737 41.445C42.6328 41.5068 42.6919 41.5686 42.7368 41.6448C42.7678 41.769 42.7163 41.8818 42.6648 41.9948C42.6141 42.1059 42.5634 42.217 42.5912 42.3392C42.6304 42.4456 42.72 42.5296 42.8264 42.5744C43.0168 42.6192 43.1848 42.4848 43.3136 42.356C44.0416 41.6336 44.7696 40.9056 45.4976 40.1776L45.5229 40.1511C45.6172 40.0524 45.7183 39.9467 45.744 39.808C45.8112 39.6064 45.6152 39.3768 45.4024 39.3992C45.3263 39.4164 45.2545 39.4486 45.1828 39.4809C45.0908 39.5221 44.999 39.5634 44.8984 39.5728C44.7706 39.5433 44.673 39.4491 44.5829 39.3622C44.5703 39.35 44.5579 39.3381 44.5456 39.3264C43.5464 38.331 42.5498 37.3331 41.5523 36.3344L41.5523 36.3344C41.0571 35.8385 40.5616 35.3425 40.0656 34.8464C40.0538 34.8331 40.0414 34.8197 40.0288 34.8062C39.946 34.7168 39.8557 34.6193 39.8752 34.488C39.8898 34.4171 39.9192 34.35 39.9483 34.2836L39.9483 34.2836L39.9483 34.2836L39.9483 34.2836L39.9483 34.2836L39.9483 34.2836L39.9483 34.2836L39.9483 34.2835L39.9483 34.2835L39.9483 34.2835L39.9483 34.2835L39.9483 34.2835L39.9483 34.2835C39.9973 34.1718 40.0453 34.0621 40.0208 33.9392C39.9984 33.76 39.7968 33.6592 39.6344 33.6928ZM36.3695 36.8792C36.5375 36.7728 36.7895 36.84 36.8679 37.0304C36.9137 37.1645 36.8621 37.2872 36.8101 37.4107C36.7731 37.4985 36.7359 37.5869 36.7335 37.68C36.7286 37.7842 36.8028 37.862 36.8704 37.933L36.8704 37.933L36.8708 37.9334L36.8708 37.9335L36.8811 37.9442L36.8959 37.96C37.4093 38.4734 37.9221 38.9868 38.4347 39.5L38.4435 39.5088L38.4453 39.5106C39.4779 40.5444 40.5096 41.5775 41.5439 42.608C41.6904 42.7661 41.8582 42.6992 42.0283 42.6313C42.1835 42.5694 42.3405 42.5067 42.4847 42.6136C42.6807 42.7704 42.6135 43.0784 42.4455 43.224C42.1357 43.5362 41.8249 43.8464 41.5143 44.1563L41.5122 44.1584L41.5106 44.1599L41.5103 44.1603L41.5099 44.1607L41.5095 44.1611L41.5091 44.1615L41.5087 44.1618L41.5083 44.1622L41.508 44.1626L41.5076 44.163L41.5074 44.1632L41.5072 44.1634L41.507 44.1636L41.5068 44.1638L41.5066 44.164L41.5064 44.1642L41.5062 44.1644L41.506 44.1646L41.5058 44.1647L41.5056 44.1649L41.5054 44.1651L41.5052 44.1653L41.505 44.1655L41.5049 44.1657L41.5047 44.1659L41.5045 44.1661L41.5043 44.1663C41.0885 44.5812 40.6732 44.9956 40.2615 45.4136C40.244 45.4303 40.2265 45.4475 40.2088 45.4648L40.2088 45.4648C40.1079 45.5638 40.0021 45.6675 39.8639 45.7104C39.6847 45.7608 39.4663 45.6488 39.4439 45.4584C39.4263 45.3407 39.4735 45.2369 39.5208 45.1333C39.5634 45.0396 39.606 44.9461 39.6007 44.8424C39.5727 44.7472 39.5111 44.6688 39.4439 44.596C37.9767 43.1344 36.5095 41.6672 35.0479 40.2C35.0122 40.1671 34.9779 40.132 34.9436 40.0969L34.9434 40.0967L34.9434 40.0967L34.9434 40.0967L34.9433 40.0966L34.9433 40.0966L34.9433 40.0966L34.9433 40.0966L34.9432 40.0966L34.9432 40.0965L34.9432 40.0965L34.9432 40.0965L34.9431 40.0965C34.8432 39.9942 34.7429 39.8916 34.6055 39.8416C34.4933 39.8354 34.3915 39.8795 34.2895 39.9236C34.2082 39.9588 34.1268 39.9941 34.0399 40.004C33.8719 40.0096 33.7263 39.8584 33.7207 39.696C33.7039 39.5224 33.8271 39.3824 33.9447 39.2648L33.9466 39.2629L33.947 39.2626C34.6742 38.5353 35.4015 37.8081 36.1231 37.0808L36.1516 37.0542C36.2196 36.9905 36.2859 36.9284 36.3695 36.8792ZM32.8895 40.3191C32.7008 40.5087 32.5126 40.6978 32.3207 40.8833L32.2991 40.9046L32.2868 40.9166C32.23 40.9718 32.1732 41.027 32.1359 41.1017C32.2256 41.2137 32.3301 41.3158 32.4347 41.4179C32.4869 41.4689 32.5392 41.5199 32.5895 41.5721C33.1159 41.5105 33.6311 41.6841 34.0735 41.9585C34.1885 42.0221 34.2949 42.0995 34.4011 42.1769C34.5382 42.2767 34.675 42.3763 34.8295 42.4457C35.1039 42.5689 35.4175 42.2665 35.3503 41.9921C35.3073 41.8801 35.2245 41.7947 35.1427 41.7102L35.1426 41.7101C35.118 41.6848 35.0936 41.6595 35.0703 41.6337C34.8031 41.3715 34.5382 41.1059 34.2735 40.8405L34.2734 40.8405C33.9557 40.5219 33.6383 40.2037 33.3175 39.8921C33.1738 40.0335 33.032 40.1759 32.8906 40.318L32.8906 40.318L32.8905 40.3181L32.8904 40.3182L32.8903 40.3182L32.8903 40.3183L32.8902 40.3184L32.8901 40.3184L32.8901 40.3185L32.89 40.3186L32.8899 40.3186L32.8899 40.3187L32.8898 40.3188L32.8897 40.3189L32.8897 40.3189L32.8896 40.319L32.8895 40.3191ZM31.2787 41.9315L31.2791 41.9311L31.2813 41.9288C31.4354 41.7745 31.5895 41.62 31.7439 41.4656C32.9199 42.6472 34.1015 43.8288 35.2831 45.0048C35.5329 45.2524 35.7802 45.5017 36.0272 45.7507L36.0274 45.7509L36.0275 45.751C36.4229 46.1495 36.8176 46.5474 37.2207 46.9368C37.371 47.1053 37.562 47.0219 37.7366 46.9458C37.7767 46.9283 37.8159 46.9112 37.8535 46.8976C38.0551 46.808 38.2903 46.9872 38.2847 47.2C38.2847 47.3456 38.2007 47.4688 38.1055 47.5696C37.5978 48.0735 37.0951 48.5775 36.5924 49.0815C36.3409 49.3335 36.0895 49.5855 35.8375 49.8376C35.7311 49.944 35.5967 50.0504 35.4399 50.0392C35.2663 50.056 35.0983 49.888 35.1151 49.72C35.1205 49.6337 35.1557 49.5553 35.1908 49.4771C35.2286 49.3928 35.2663 49.3089 35.2663 49.216C35.2754 49.093 35.192 49.0071 35.1123 48.9251C35.094 48.9063 35.0759 48.8876 35.0591 48.8688C34.2929 48.1074 33.5299 47.343 32.7668 46.5785C31.7507 45.5606 30.7346 44.5426 29.7111 43.532L29.7287 43.5091C29.7779 43.445 29.824 43.3849 29.8791 43.3248C30.3496 42.8627 30.8137 42.3975 31.2787 41.9315ZM73.9735 44.8424C73.2904 44.148 72.6015 43.4592 71.9072 42.776C71.7874 42.8958 71.6681 43.016 71.5487 43.1363L71.5486 43.1363L71.5486 43.1364L71.5486 43.1364L71.5485 43.1365L71.5485 43.1365L71.5484 43.1365L71.5484 43.1366L71.5483 43.1366L71.5483 43.1367L71.5482 43.1367L71.5482 43.1367L71.5482 43.1368L71.5474 43.1375C71.2486 43.4387 70.9493 43.7402 70.6415 44.036C70.7927 44.232 70.972 44.4056 71.1568 44.5736C71.8512 44.456 72.5064 44.8144 73.0608 45.1952C73.1014 45.2227 73.1421 45.253 73.1832 45.2836L73.1833 45.2837C73.3517 45.4091 73.528 45.5403 73.744 45.5088C74.0352 45.464 74.192 45.0496 73.9735 44.8424ZM29.308 43.9127C29.4421 43.9635 29.5433 44.0799 29.6436 44.1951L29.6436 44.1952C29.6983 44.258 29.7527 44.3205 29.812 44.3719C29.7224 45.0215 30.0304 45.6319 30.3944 46.1415C30.4223 46.1841 30.4517 46.2259 30.4812 46.2677C30.5641 46.3855 30.6472 46.5036 30.6968 46.6399C30.7696 46.8863 30.5288 47.1439 30.2824 47.1159C30.1631 47.1159 30.0764 47.0306 29.9979 46.9534L29.9979 46.9534L29.9979 46.9533L29.9979 46.9533C29.9842 46.9399 29.9709 46.9268 29.9576 46.9143C29.6527 46.6066 29.3464 46.3017 29.0401 45.9968L29.04 45.9967L29.0399 45.9966L29.0398 45.9965L29.0397 45.9964L29.0396 45.9963L29.0395 45.9962L29.0393 45.9961L29.0392 45.996L29.0391 45.9959L29.039 45.9958L29.0389 45.9956L29.0388 45.9955L29.0385 45.9952L29.0384 45.9951C28.7321 45.6902 28.4257 45.3853 28.1208 45.0775C28.304 44.9045 28.4814 44.7257 28.6588 44.5469L28.6588 44.5469L28.6589 44.5469L28.6589 44.5469L28.6589 44.5468L28.6589 44.5468L28.6589 44.5468L28.659 44.5468L28.659 44.5468L28.659 44.5467L28.659 44.5467L28.659 44.5467L28.6591 44.5467L28.6591 44.5466L28.6591 44.5466C28.8721 44.332 29.085 44.1174 29.308 43.9127ZM45.2399 46.9088C44.0919 46.6736 42.8823 46.7128 41.7679 47.0712C40.8271 47.3736 39.9535 47.872 39.2087 48.5104C39.2087 48.5188 39.2101 48.5314 39.2115 48.5439L39.2115 48.544L39.2115 48.544C39.2129 48.5566 39.2143 48.5692 39.2143 48.5776C39.3328 48.708 39.4576 48.8306 39.5821 48.9527L39.5821 48.9528L39.5821 48.9528L39.5821 48.9528L39.5822 48.9528L39.5822 48.9529L39.5822 48.9529L39.5822 48.9529L39.5823 48.9529L39.5823 48.953L39.5823 48.953L39.5823 48.953L39.5823 48.953L39.5824 48.9531C39.693 49.0617 39.8033 49.17 39.9087 49.2832C39.9274 49.2976 39.9461 49.3175 39.9654 49.3381C40.0214 49.3978 40.083 49.4634 40.1663 49.4176L40.175 49.4145C40.4523 49.3146 40.7406 49.2108 41.0343 49.2496C41.3983 49.2776 41.7175 49.4848 41.9695 49.7424C43.3547 51.1304 44.7427 52.5185 46.1307 53.9065C47.5147 55.2905 48.8987 56.6745 50.2799 58.0585C50.6551 58.4168 50.8063 58.9712 50.6551 59.464C50.6435 59.5245 50.6203 59.582 50.5971 59.6395C50.5645 59.7204 50.5319 59.8012 50.5319 59.8896C50.6919 60.0688 50.8647 60.2389 51.0378 60.4092L51.038 60.4095C51.1677 60.5371 51.2976 60.6649 51.4223 60.7968C52.0999 59.9905 52.6375 59.0552 52.9343 58.0416C53.2367 57.0168 53.2815 55.9192 53.0799 54.872C52.7159 52.9625 51.6407 51.2488 50.2911 49.8824C48.9135 48.4656 47.1887 47.3232 45.2399 46.9088ZM49.3168 46.7632C49.5408 46.8362 49.7479 46.9431 49.9564 47.0508L50.0504 47.0992C50.5362 47.3345 51.0204 47.5748 51.5056 47.8155C51.9209 48.0215 52.3369 48.2279 52.7553 48.432C52.8336 48.4712 52.9065 48.5328 52.9736 48.5944C53.5427 49.1718 54.1149 49.743 54.6879 50.3149L54.6881 50.3152C54.8819 50.5086 55.0758 50.7021 55.2696 50.896C55.684 51.3384 56.2048 51.68 56.7705 51.8928C57.168 52.044 57.616 52.044 58.0136 51.904L58.0362 51.8964C58.2315 51.8311 58.4415 51.7609 58.6465 51.8255C58.8593 51.9095 59.016 52.1224 59.0328 52.352C59.016 52.66 58.82 52.9176 58.6128 53.1304C57.9296 53.8248 57.2353 54.5135 56.5408 55.1968C56.356 55.3648 56.1433 55.5384 55.8856 55.5664C55.516 55.6224 55.152 55.2304 55.264 54.872C55.2801 54.817 55.2971 54.762 55.3141 54.7068C55.4097 54.3962 55.5068 54.0809 55.4545 53.7576C55.3648 53.1192 55.0008 52.5535 54.5976 52.0664C53.839 51.3049 53.0789 50.5448 52.3181 49.7841C51.5571 49.023 50.7954 48.2613 50.0337 47.4968C49.9441 47.403 49.8513 47.3124 49.7584 47.2217L49.7583 47.2217C49.6072 47.0741 49.4555 46.9262 49.3168 46.7632ZM66.8186 47.8658C66.6776 48.0061 66.5369 48.1462 66.3968 48.2864C66.6554 48.5719 66.9301 48.8432 67.2053 49.115L67.2053 49.1151L67.2055 49.1153C67.3891 49.2966 67.5728 49.478 67.752 49.664L67.695 49.651C67.3444 49.571 66.9932 49.4909 66.632 49.5016C65.6408 49.4512 64.672 49.86 63.9272 50.4984C64.0952 50.6664 64.2688 50.84 64.4424 51.0024C64.6216 50.9408 64.8176 50.8848 65.0135 50.9072C65.2208 50.924 65.3944 51.0584 65.54 51.204C67.0128 52.6768 68.4855 54.1495 69.964 55.6224L70.0019 55.6602C70.1763 55.8334 70.3598 56.0158 70.412 56.2664C70.4459 56.4058 70.4114 56.5426 70.3766 56.6804C70.3597 56.7474 70.3427 56.8146 70.3335 56.8824C70.427 57.0094 70.5429 57.1191 70.658 57.2279C70.7153 57.2821 70.7724 57.3361 70.8264 57.392C71.4256 56.6752 71.8344 55.768 71.8288 54.8215C71.8512 53.8248 71.4535 52.8728 70.888 52.072C70.3952 51.3832 69.7736 50.7784 69.068 50.3024C69.1184 50.168 69.1688 50.0168 69.096 49.8824C69.021 49.7262 68.9199 49.5857 68.819 49.4454L68.819 49.4454L68.8189 49.4453L68.8189 49.4453L68.8189 49.4453L68.8189 49.4452L68.8188 49.4452L68.8188 49.4451L68.8188 49.4451L68.8188 49.4451L68.8187 49.445C68.7387 49.3338 68.6588 49.2227 68.592 49.104C68.3008 48.6336 68.1104 48.0792 68.1832 47.5192C68.1296 47.4673 68.0771 47.4145 68.0247 47.3616C67.9072 47.2433 67.7902 47.1253 67.6624 47.0208C67.3825 47.3044 67.1001 47.5855 66.8186 47.8658ZM37.092 51.5736C37.4 50.7168 37.8872 49.9328 38.464 49.2328C38.5829 49.3541 38.7048 49.4735 38.8268 49.5929C38.9976 49.7602 39.1686 49.9276 39.332 50.1008C39.3671 50.2133 39.3228 50.3214 39.278 50.4307C39.2515 50.4954 39.2248 50.5605 39.2144 50.6272C39.0688 51.1088 39.2592 51.6352 39.612 51.9824C41.4257 53.7999 43.242 55.6149 45.0591 57.4308L45.0597 57.4314C45.969 58.3401 46.8785 59.2489 47.788 60.1584C48.0512 60.444 48.3704 60.7128 48.7736 60.7744C49.132 60.8304 49.4848 60.7072 49.8152 60.584C49.9675 60.7364 50.1199 60.8873 50.2722 61.0382L50.2723 61.0383L50.2723 61.0383L50.2735 61.0395C50.4231 61.1877 50.5728 61.336 50.7224 61.4856C50.0615 62.0624 49.2944 62.516 48.4768 62.8352C47.2448 63.3112 45.8672 63.3896 44.5736 63.104C42.608 62.6728 40.8776 61.4912 39.4944 60.052C38.2176 58.7136 37.1872 57.0728 36.8232 55.2416C36.5768 54.0264 36.6552 52.7384 37.092 51.5736ZM63.5464 50.8904C62.9864 51.5287 62.6112 52.3407 62.544 53.192C62.4655 54.004 62.6895 54.8104 63.048 55.5272C62.4767 54.9727 61.6647 54.6255 60.8584 54.76C59.8727 54.8832 59.1055 55.5832 58.4335 56.2607C58.5206 56.345 58.6062 56.4306 58.6918 56.5162C58.777 56.6014 58.8622 56.6866 58.9487 56.7704C59.1224 56.6695 59.3072 56.5632 59.5144 56.5855C59.8488 56.6068 60.1027 56.8444 60.338 57.0646L60.3767 57.1007C60.7967 57.5207 61.2167 57.9407 61.6312 58.3607C61.664 58.3955 61.6977 58.4299 61.7314 58.4644C61.9044 58.6414 62.0797 58.8208 62.1687 59.0552C62.2584 59.3295 62.1632 59.6095 62.0175 59.8447C62.1894 60.0111 62.3613 60.1829 62.5277 60.3493L62.5327 60.3544C62.9975 59.8784 63.468 59.3855 63.7704 58.7807C64.0784 58.1647 64.1232 57.4312 63.9272 56.776C64.3415 57.2632 64.84 57.6832 65.3832 58.0304C66.1335 58.5007 67.0184 58.82 67.92 58.7807C68.8495 58.7807 69.7287 58.372 70.4344 57.7895C70.3043 57.6461 70.1671 57.5098 70.0313 57.3749L70.0005 57.3443L69.9304 57.2744L69.8952 57.2852C69.6874 57.3495 69.4704 57.4167 69.2584 57.3584C69.0503 57.3016 68.8981 57.149 68.7513 57.0017C68.7242 56.9746 68.6974 56.9477 68.6704 56.9215C67.9285 56.1825 67.1894 55.442 66.4503 54.7015L66.4493 54.7005L66.4452 54.6964C65.7132 53.963 64.9812 53.2296 64.2464 52.4975C64.112 52.3632 63.9832 52.212 63.9495 52.0215C63.9028 51.8438 63.9614 51.6662 64.018 51.495C64.0291 51.4612 64.0402 51.4276 64.0504 51.3944C64.0211 51.3651 63.9916 51.3358 63.962 51.3065L63.881 51.2263C63.7678 51.1143 63.6546 51.0024 63.5464 50.8904ZM33.0265 55.1465C33.1945 54.984 33.4129 54.8608 33.6481 54.844C34.0345 54.8216 34.3873 55.2248 34.2809 55.6C34.2486 55.7099 34.1981 55.8148 34.1475 55.9198C34.0665 56.0878 33.9854 56.2561 33.9785 56.4456C33.9985 56.6859 34.1797 56.8636 34.3459 57.0266L34.3459 57.0266C34.3656 57.0459 34.3851 57.065 34.4041 57.084L43.0281 65.708C43.1625 65.8368 43.3137 65.9656 43.5041 65.9825C43.6944 65.9825 43.8596 65.8998 44.0258 65.8167C44.1433 65.758 44.2613 65.699 44.3889 65.6688C44.7585 65.596 45.1281 65.932 45.1113 66.3016C45.1001 66.5536 44.9601 66.7832 44.7865 66.9625L40.4465 71.3025C40.2561 71.4872 40.0209 71.6496 39.7465 71.6496C39.4105 71.6608 39.0969 71.3416 39.1249 71C39.1408 70.8415 39.2114 70.698 39.2823 70.5541C39.3616 70.393 39.4412 70.2315 39.4441 70.048C39.4341 69.8629 39.3034 69.7181 39.1839 69.5855L39.1667 69.5664L39.1417 69.5385C38.4972 68.8911 37.8513 68.2466 37.206 67.6028L37.205 67.6017L37.2025 67.5993L37.2001 67.5968L37.1981 67.5948L37.1969 67.5937L37.1953 67.5921L37.1933 67.5901L37.1926 67.5894C36.5529 66.9511 35.9139 66.3135 35.2777 65.6745C35.2666 65.6658 35.2546 65.6536 35.242 65.6406C35.1974 65.595 35.144 65.5406 35.0873 65.6016C34.8635 65.8171 34.6438 66.0381 34.4242 66.2591C34.2042 66.4805 33.9843 66.7019 33.7601 66.9176C33.4577 66.6152 33.1553 66.3128 32.8529 66.0048C33.2841 65.5512 33.7321 65.1088 34.1857 64.672C34.1857 64.6608 34.1871 64.6426 34.1885 64.6244L34.1896 64.61L34.1906 64.5956C34.191 64.5883 34.1913 64.5819 34.1913 64.5768C33.418 63.8178 32.6537 63.0519 31.8885 62.285L31.8883 62.2848L31.8878 62.2843L31.8876 62.2842L31.8875 62.2841L31.8874 62.284L31.8873 62.2839L31.8872 62.2838L31.8871 62.2837C31.4503 61.8459 31.0131 61.4078 30.5737 60.9705C30.5393 60.9381 30.5052 60.9042 30.471 60.87L30.4705 60.8696L30.4698 60.8689L30.4697 60.8687C30.3204 60.72 30.1667 60.5668 29.9577 60.5168C29.7522 60.5038 29.5733 60.5915 29.3944 60.6791C29.2662 60.7419 29.138 60.8047 29.0001 60.8305C28.5745 60.9032 28.1881 60.4216 28.3337 60.024C28.4017 59.7625 28.6016 59.5694 28.7873 59.39L28.8265 59.352C29.4263 58.7498 30.0272 58.1496 30.6278 57.5498C31.4289 56.7495 32.2295 55.9498 33.0265 55.1465ZM59.2122 57.8202C58.8226 57.4273 58.4335 57.0348 58.0302 56.6584L57.9867 56.7019L57.9866 56.7021L57.9864 56.7022L57.9863 56.7024L57.9861 56.7025L57.986 56.7027L57.9858 56.7028C57.2612 57.4274 56.5313 58.1572 55.8014 58.8816L55.7993 58.8838C55.6766 59.0121 55.5327 59.1627 55.5494 59.3576C55.5382 59.5368 55.7062 59.688 55.8798 59.7048C55.9678 59.6938 56.0507 59.656 56.1334 59.6182C56.2612 59.5599 56.3888 59.5016 56.535 59.5424C56.632 59.5929 56.7101 59.6728 56.7881 59.7526L56.7881 59.7526L56.7881 59.7526C56.8227 59.788 56.8572 59.8233 56.8934 59.856C58.5118 61.48 60.1358 63.104 61.7598 64.7225C61.8771 64.8486 61.8162 64.9854 61.7542 65.125C61.6978 65.2519 61.6403 65.3811 61.715 65.5064C61.8214 65.7192 62.1462 65.8144 62.3198 65.624C62.7146 65.2348 63.1066 64.8428 63.4986 64.4508C63.8906 64.0588 64.2826 63.6668 64.6774 63.2776C64.6978 63.2554 64.7195 63.2331 64.7414 63.2105C64.8638 63.0844 64.9966 62.9476 64.9966 62.7624C65.0134 62.6 64.879 62.46 64.7334 62.4096C64.6084 62.3864 64.497 62.4386 64.385 62.491C64.2813 62.5396 64.1772 62.5884 64.0614 62.5776C63.9712 62.5604 63.9007 62.4971 63.8324 62.4357C63.8116 62.417 63.7911 62.3986 63.7702 62.3816C62.5102 61.1216 61.2502 59.8616 59.9958 58.6016C59.7315 58.3441 59.4718 58.0821 59.2122 57.8202ZM53.0353 61.6481C53.2942 61.3935 53.5506 61.1355 53.8071 60.8775C54.2107 60.4714 54.6146 60.0651 55.0289 59.6713C55.3286 59.9738 55.6297 60.2749 55.9308 60.576C56.2317 60.8769 56.5326 61.1778 56.8321 61.4801C57.0337 61.6761 56.8209 61.9728 56.6137 62.0625C56.4996 62.0756 56.3924 62.0234 56.2894 61.9733C56.2609 61.9594 56.2328 61.9458 56.2049 61.9336C55.6897 61.6816 55.0961 61.5585 54.5306 61.7041C54.2072 61.7697 53.9204 61.9402 53.6371 62.1087L53.5449 62.1633C53.3769 61.9896 53.2089 61.8161 53.0353 61.6481ZM51.6069 63.0807C51.1749 63.5102 50.7426 63.9402 50.3136 64.3753C50.1345 64.5433 50.0673 64.8793 50.3025 65.0305C50.4582 65.1417 50.6084 65.0726 50.7615 65.0023C50.8782 64.9487 50.9965 64.8943 51.1201 64.9185C51.3164 65.034 51.473 65.1971 51.63 65.3606C51.7014 65.4349 51.7728 65.5093 51.8481 65.5793L55.9305 69.6617C55.97 69.7025 56.0111 69.7424 56.0522 69.7824C56.186 69.9125 56.3208 70.0434 56.4065 70.2105C56.422 70.3297 56.3716 70.4382 56.3212 70.5464C56.2628 70.6719 56.2045 70.7971 56.2496 70.9385C56.2912 71.0839 56.4435 71.1378 56.577 71.185L56.6081 71.1961C56.7481 71.1345 56.8993 71.0673 57.0056 70.9497C57.3557 70.5918 57.7106 70.2376 58.0658 69.8831L58.0661 69.8828C58.4723 69.4774 58.879 69.0715 59.2793 68.6593C58.6979 68.0879 58.1225 67.5106 57.5471 66.9332C57.1638 66.5485 56.7804 66.1638 56.3953 65.7809C55.7227 65.1202 55.0565 64.4532 54.3907 63.7867L54.3902 63.7861L54.3901 63.7861L54.39 63.786L54.3899 63.7859L54.3898 63.7858C53.8086 63.2039 53.2278 62.6224 52.6433 62.0457C52.2995 62.3919 51.9535 62.736 51.6072 63.0803L51.6069 63.0807ZM55.7454 62.9864C55.6559 62.7567 55.8687 62.4879 56.1094 62.5272C56.2214 62.5552 56.3054 62.6279 56.3839 62.7064C56.636 62.9608 56.8891 63.2133 57.1419 63.4654L57.1426 63.4661C57.4793 63.8019 57.8154 64.1371 58.1479 64.4759C58.1916 64.5209 58.2383 64.5645 58.2852 64.6082L58.2853 64.6084L58.2854 64.6084C58.4427 64.7551 58.6027 64.9043 58.6631 65.1199L58.654 65.1355L58.6405 65.1589C58.5733 65.2759 58.4947 65.4129 58.3439 65.4279C58.1653 65.4462 58.0175 65.36 57.8682 65.2729C57.7881 65.2262 57.7075 65.1792 57.6214 65.1479C57.2854 64.9799 56.8767 64.9799 56.5407 65.1535C56.4801 65.093 56.4201 65.0324 56.3604 64.972C56.2434 64.8538 56.1273 64.7365 56.0087 64.6215C56.1319 64.3584 56.1879 64.0559 56.0983 63.7759C56.06 63.6131 55.9816 63.4666 55.9036 63.321C55.8449 63.2112 55.7864 63.1019 55.7454 62.9864ZM59.8895 64.4088C59.7495 64.2408 59.4639 64.2688 59.3463 64.448C59.2279 64.612 59.3095 64.8056 59.3833 64.9807C59.4002 65.0208 59.4167 65.06 59.4303 65.0976C59.8335 65.9488 59.7495 67.0184 59.1503 67.7576C59.2176 67.8271 59.2858 67.8958 59.3538 67.9642L59.3539 67.9643L59.354 67.9645L59.3541 67.9645C59.4558 68.0669 59.5571 68.1689 59.6543 68.2728C60.0826 67.8751 60.4945 67.4588 60.906 67.0427L60.9061 67.0426L60.9063 67.0425C61.1726 66.7732 61.4389 66.504 61.7095 66.24C61.3346 65.8546 60.9531 65.4736 60.5719 65.0928L60.5719 65.0927L60.5718 65.0927C60.3438 64.8649 60.1159 64.6373 59.8895 64.4088ZM49.3839 66.5256C50.3807 66.4416 51.3719 66.8 52.1951 67.3432C52.8391 67.7745 53.4384 68.2728 53.8975 68.8945C54.4464 69.628 54.7824 70.524 54.7879 71.448C54.8047 72.5008 54.3904 73.5648 53.6399 74.3096C53.4664 74.1416 53.2984 73.9736 53.1304 73.8L53.1494 73.7643C53.2452 73.5844 53.3466 73.3941 53.3151 73.184C53.2591 72.848 53.0295 72.5736 52.7999 72.344L49.0199 68.564C48.7623 68.312 48.4711 68.0376 48.0903 68.0096C47.8831 67.9873 47.6983 68.0936 47.5247 68.1945C47.4706 68.1347 47.4096 68.08 47.3486 68.0252C47.2267 67.9157 47.1047 67.8062 47.0375 67.6568C47.6535 67.024 48.4935 66.5816 49.3839 66.5256ZM23.4869 66.6012C23.4301 66.6275 23.3734 66.6538 23.3159 66.6768C23.3122 68.8909 23.3134 71.1075 23.3147 73.3232C23.3153 74.4308 23.3159 75.5381 23.3159 76.6448C26.6311 76.6448 29.9463 76.6448 33.2671 76.6504C33.2848 76.613 33.3034 76.5756 33.3221 76.5381C33.4095 76.3619 33.4987 76.1825 33.5079 75.984C33.4843 75.776 33.337 75.62 33.1974 75.472C33.1715 75.4446 33.146 75.4175 33.1215 75.3904C31.9986 74.2698 30.8766 73.1482 29.7545 72.0265C28.0672 70.3399 26.3796 68.653 24.6879 66.968C24.6426 66.9252 24.5984 66.8791 24.5539 66.8327C24.3946 66.6669 24.231 66.4966 23.9991 66.4528C23.8159 66.4487 23.6513 66.525 23.4869 66.6012Z" fill="white"/>
</g>
</svg>
