<svg width="100" height="100" viewBox="0 0 100 100" fill="none" xmlns="http://www.w3.org/2000/svg">
<mask id="mask0_1_1518" style="mask-type:alpha" maskUnits="userSpaceOnUse" x="0" y="0" width="100" height="100">
<path fill-rule="evenodd" clip-rule="evenodd" d="M50 100C13.1946 100 0 86.8062 0 50C0 14.583 13.1946 0 50 0C86.8062 0 100 13.1946 100 50C100 86.8062 86.8062 100 50 100Z" fill="white"/>
</mask>
<g mask="url(#mask0_1_1518)">
<rect width="100" height="100" fill="white"/>
<path d="M100 0H0V100H100V0Z" fill="#E60012"/>
<path d="M45.7635 51.2457H49.8601L47.6962 47.7579L43.7234 54.0624L41.9126 54.0638L46.7488 46.4928C46.954 46.185 47.3081 46 47.6934 46C48.0738 46 48.423 46.1797 48.6291 46.4794L53.4819 54.0638L51.6702 54.0624L50.8205 52.653H46.669L45.7635 51.2457ZM64.5593 52.6547V46.0786H63.0231V53.2974C63.0231 53.4973 63.1043 53.6883 63.2468 53.8306C63.3974 53.9796 63.5958 54.0624 63.8096 54.0624H70.8106L71.7138 52.6547H64.5593ZM39.1596 51.4776C40.65 51.4776 41.8588 50.2685 41.8588 48.7781C41.8588 47.2873 40.65 46.0786 39.1596 46.0786H32.441V54.0624H33.9755V47.486H39.0539C39.7693 47.486 40.3458 48.0639 40.3458 48.7781C40.3458 49.4916 39.7693 50.0711 39.0539 50.0711L34.7275 50.0697L39.3092 54.0624H41.5398L38.4568 51.4762L39.1596 51.4776ZM22.9921 54.0624C20.788 54.0624 19 52.276 19 50.0711C19 47.8659 20.788 46.0786 22.9921 46.0786H27.6328C29.8372 46.0786 31.6243 47.8659 31.6243 50.0711C31.6243 52.2767 29.8372 54.0638 27.6328 54.0638L22.9921 54.0624ZM27.5293 52.6556C28.9573 52.6556 30.1136 51.4988 30.1136 50.0711C30.1136 48.6432 28.9573 47.4862 27.5293 47.4862L23.095 47.486C21.6677 47.486 20.5104 48.6432 20.5104 50.0711C20.5104 51.4988 21.6677 52.6556 23.095 52.6556H27.5293ZM56.6849 54.0624C54.4813 54.0624 52.6926 52.276 52.6926 50.0711C52.6926 47.8659 54.4813 46.0786 56.6849 46.0786H62.1996L61.2958 47.4862L56.7886 47.486C55.3604 47.486 54.203 48.6432 54.203 50.0711C54.203 51.4988 55.3604 52.6556 56.7886 52.6556H62.324L61.4222 54.0624H56.6849ZM75.4654 52.6556C74.2839 52.6556 73.2847 51.8611 72.9797 50.7773H79.5423L80.4462 49.3697L72.9778 49.3691C73.2832 48.2825 74.2812 47.486 75.4654 47.486L79.9698 47.4862L80.875 46.0786H75.3602C73.1569 46.0786 71.3684 47.8659 71.3684 50.0711C71.3684 52.276 73.1569 54.0624 75.3602 54.0624H80.0976L81 52.6556H75.4654Z" fill="white"/>
</g>
</svg>
