<svg width="100" height="100" viewBox="0 0 100 100" fill="none" xmlns="http://www.w3.org/2000/svg">
<mask id="mask0_1_1527" style="mask-type:alpha" maskUnits="userSpaceOnUse" x="0" y="0" width="100" height="100">
<path fill-rule="evenodd" clip-rule="evenodd" d="M50 100C13.1946 100 0 86.8062 0 50C0 14.583 13.1946 0 50 0C86.8062 0 100 13.1946 100 50C100 86.8062 86.8062 100 50 100Z" fill="white"/>
</mask>
<g mask="url(#mask0_1_1527)">
<path d="M100 0H0V100H100V0Z" fill="#351C15"/>
<path d="M38.6658 57.7195C38.0812 58.0756 37.3992 58.2699 36.6848 58.2375C34.7687 58.2375 34.4764 56.4891 34.4764 55.3235V42.0483H30.3194V55.1292C30.3194 59.5327 32.3979 61.7668 36.5549 61.7668C38.7632 61.8639 40.9716 61.2811 42.8553 60.0831V42.0483H38.6983V57.7195H38.6658Z" fill="#F2BF41"/>
<path d="M49.9675 23.3335C40.7117 23.3335 32.6576 25.1143 25.9999 28.6436V56.7804C25.9999 62.7057 28.2408 67.6596 32.4627 71.0917C36.3274 74.2324 48.6035 79.6072 49.9999 80.2224C51.3964 79.6072 63.6725 74.2324 67.5372 71.0917C71.7591 67.6596 73.9999 62.7057 73.9999 56.7804V28.6436C67.2773 25.1143 59.2232 23.3335 49.9675 23.3335ZM71.7591 56.7804C71.7591 62.0581 69.843 66.3644 66.1082 69.408C62.7956 72.1278 52.7604 76.596 49.9675 77.8264C47.142 76.596 37.1068 72.0306 33.8267 69.408C30.1244 66.3968 28.1759 62.0257 28.1759 56.7804V40.6883C38.4708 31.2662 50.9418 28.7731 62.5683 28.7731C65.686 28.7731 68.7713 28.9673 71.7266 29.2264V56.7804H71.7591Z" fill="#F2BF41"/>
<path d="M50.5846 41.6275C48.6035 41.5627 46.655 42.0808 44.9662 43.1169V70.2176H49.1232V61.4431C49.7402 61.605 50.3573 61.7021 51.0068 61.6697C55.6509 61.6697 58.2815 57.4929 58.2815 51.4381C58.2815 45.3834 55.5859 41.6275 50.5846 41.6275ZM50.4872 58.3024C50.0325 58.3024 49.5778 58.2052 49.1232 58.0433V45.2539C49.5778 45.0596 50.0974 44.9625 50.6171 44.9625C53.0528 44.9625 54.0271 46.9052 54.0271 51.5353C54.0596 56.1006 52.8904 58.3024 50.4872 58.3024Z" fill="#F2BF41"/>
<path d="M59.2556 47.0344C59.2556 49.2361 59.8726 50.8874 63.3151 52.9272C65.1662 53.9957 65.8807 54.708 65.9132 56.0032C65.9457 57.4602 64.9389 58.3344 63.4125 58.3344C61.9186 58.2373 60.5221 57.6221 59.4179 56.6507V60.4714C60.8144 61.3132 62.3733 61.7342 63.9971 61.7665C68.1216 61.7665 69.9727 58.8525 70.0377 56.1975C70.1026 53.7691 69.4531 51.9235 65.9457 49.8837C64.3868 48.9771 63.1527 48.3619 63.2177 46.8725C63.2501 45.3831 64.4842 44.865 65.6859 44.8974C67.1148 44.9621 68.4463 45.5773 69.4206 46.6134V42.9871C68.0891 42.0157 66.4653 41.5624 64.8415 41.6272C61.8212 41.5948 59.3205 44.0232 59.2556 47.0344Z" fill="#F2BF41"/>
</g>
</svg>
