<svg width="100" height="100" viewBox="0 0 100 100" fill="none" xmlns="http://www.w3.org/2000/svg">
<mask id="mask0_1_1524" style="mask-type:alpha" maskUnits="userSpaceOnUse" x="0" y="0" width="100" height="100">
<path fill-rule="evenodd" clip-rule="evenodd" d="M50 100C13.1946 100 0 86.8062 0 50C0 14.583 13.1946 0 50 0C86.8062 0 100 13.1946 100 50C100 86.8062 86.8062 100 50 100Z" fill="white"/>
</mask>
<g mask="url(#mask0_1_1524)">
<rect width="100" height="100" fill="white"/>
<path d="M100 0H0V100H100V0Z" fill="#0096DA"/>
<path fill-rule="evenodd" clip-rule="evenodd" d="M37.1715 25.2193C37.1715 25.2193 40.4391 24.6332 43.2798 24.6332C47.5957 24.6332 49.7541 25.2193 50.4944 25.2193C52.0828 25.2193 63.2445 25.2193 63.2445 25.2193C59.334 23.1641 54.894 22 50.1694 22C45.4559 22 41.075 23.1728 37.1715 25.2193Z" fill="white"/>
<path fill-rule="evenodd" clip-rule="evenodd" d="M69.8327 30.0479H60.3162C56.6267 30.0479 48.7318 29.4044 45.4935 29.4044C44.0743 29.4044 36.577 29.4044 36.577 29.4044C34.5321 29.4044 30.4684 30.0479 30.4684 30.0479C31.6701 28.8715 32.6578 28.0412 33.3394 27.5868C33.3394 27.5868 35.8384 28.1018 38.0543 28.1018C39.4736 28.1018 45.9485 28.098 45.9485 28.098C48.9021 28.098 55.4907 26.8443 57.7051 26.8443C58.5579 26.8443 65.9646 26.8403 65.9646 26.8403C67.3656 27.7907 68.6274 28.8673 69.8327 30.0479Z" fill="white"/>
<path fill-rule="evenodd" clip-rule="evenodd" d="M73.8376 34.8762H61.8492C59.3531 34.8762 51.5716 34.0618 48.6737 34.0618C46.119 34.0618 32.7703 34.0618 32.7703 34.0618C30.7266 34.0618 26.5109 34.8762 26.5109 34.8762C27.2413 33.7475 27.6311 33.2541 28.5114 32.2443C28.5114 32.2443 30.8969 32.6419 33.1132 32.6419C34.6457 32.6419 48.6742 32.6419 48.6742 32.6419C52.4236 32.6419 58.6146 31.6699 60.9431 31.6699C62.9881 31.6699 71.4145 31.6699 71.4145 31.6699C72.2966 32.6817 73.1057 33.7449 73.8376 34.8762Z" fill="white"/>
<path fill-rule="evenodd" clip-rule="evenodd" d="M24.0104 39.6458C24.4531 38.5403 24.962 37.988 25.5355 36.9568C25.5355 36.9568 28.6251 37.5263 30.6148 37.5263C32.2034 37.5263 51.7981 37.5274 51.7981 37.5274C54.298 37.5274 61.0002 36.4404 62.7053 36.4404C64.0674 36.4404 74.8158 36.4412 74.8158 36.4412C75.3894 37.4726 75.8932 38.5416 76.3359 39.6476L63.3846 39.6471C61.057 39.6471 55.15 38.8902 51.9133 38.8902C49.5837 38.8902 30.3856 38.8894 30.3856 38.8894C27.8867 38.8894 24.0104 39.6458 24.0104 39.6458Z" fill="white"/>
<path fill-rule="evenodd" clip-rule="evenodd" d="M22.5586 44.5326C22.5586 44.5326 27.4322 43.6036 29.2504 43.6036C31.1809 43.6036 51.857 43.6036 51.857 43.6036C53.9003 43.6036 62.3633 44.5326 64.9772 44.5326C66.8505 44.5326 77.7749 44.5326 77.7749 44.5326C77.5531 43.4402 77.2698 42.3705 76.9255 41.3282L64.4094 41.3277C61.5682 41.3277 54.2412 42.0709 51.7404 42.0709C49.8677 42.0709 29.4204 42.0701 29.4204 42.0701C27.1482 42.0701 23.4156 41.3262 23.4156 41.3262C23.0712 42.3689 22.7805 43.4399 22.5586 44.5326Z" fill="white"/>
<path fill-rule="evenodd" clip-rule="evenodd" d="M21.9999 49.3611C21.9999 49.3611 27.8299 48.3181 29.6465 48.3181C31.1241 48.3181 50.5494 48.3181 50.5494 48.3181C53.7299 48.3181 62.4202 49.3611 65.0311 49.3611C67.4753 49.3611 78.3144 49.3611 78.3144 49.3611C78.2838 48.2769 78.1936 47.2049 78.0437 46.1548L64.4669 46.1544C61.7954 46.1544 54.1276 46.8414 50.5493 46.8414C48.2774 46.8414 30.158 46.8408 30.158 46.8408C27.2619 46.8408 22.2708 46.1533 22.2708 46.1533C22.1208 47.2036 22.0306 48.2767 21.9999 49.3611Z" fill="white"/>
<path fill-rule="evenodd" clip-rule="evenodd" d="M21.9999 50.9829C21.9999 50.9829 30.4994 51.726 32.9986 51.726C36.1792 51.726 47.8242 51.726 47.8242 51.726C51.3444 51.726 60.6594 50.9829 63.1045 50.9829C65.4873 50.9829 78.3296 50.9829 78.3296 50.9829C78.2988 52.0699 78.2047 53.139 78.0542 54.1917L63.1003 54.1911C60.1483 54.1911 51.2876 53.0891 47.7067 53.0891C44.983 53.0891 33.2836 53.0884 33.2836 53.0884C30.6698 53.0884 22.2865 54.1893 22.2865 54.1893C22.1362 53.1374 22.0306 52.069 21.9999 50.9829Z" fill="white"/>
<path fill-rule="evenodd" clip-rule="evenodd" d="M23.4194 59.018C23.0738 57.9725 22.786 56.9002 22.5636 55.8047C22.5636 55.8047 32.8586 56.6288 39.9847 56.6288C47.7318 56.6288 54.7159 55.8088 57.8745 55.8088C59.5459 55.8088 77.7772 55.8112 77.7772 55.8112C77.5548 56.9071 77.2644 57.9718 76.9187 59.0175L57.7794 59.0177C52.1949 59.0177 46.4902 58.1815 39.3623 58.1815C32.5704 58.1815 23.4194 59.018 23.4194 59.018Z" fill="white"/>
<path fill-rule="evenodd" clip-rule="evenodd" d="M76.3316 60.6417C75.8892 61.7444 75.3771 62.8128 74.805 63.8415L25.5457 63.8461C24.9743 62.8189 24.445 61.7406 24.0034 60.6396L76.3316 60.6417Z" fill="white"/>
<path fill-rule="evenodd" clip-rule="evenodd" d="M73.8362 65.4683H26.515C27.246 66.5959 28.0573 67.6658 28.9375 68.6746H71.4099C72.2873 67.6681 73.1066 66.5929 73.8362 65.4683Z" fill="white"/>
<path fill-rule="evenodd" clip-rule="evenodd" d="M65.985 73.5028H34.3823C32.9802 72.5521 31.6665 71.4777 30.4603 70.2964L69.8829 70.2954C68.6767 71.4764 67.3866 72.5522 65.985 73.5028Z" fill="white"/>
<path fill-rule="evenodd" clip-rule="evenodd" d="M63.2654 75.1177C59.3533 77.1751 54.8965 78.3392 50.1695 78.3392C45.4542 78.3392 41.0094 77.1727 37.1043 75.1247L63.2654 75.1177Z" fill="white"/>
</g>
</svg>
