<svg width="100" height="100" viewBox="0 0 100 100" fill="none" xmlns="http://www.w3.org/2000/svg">
<mask id="mask0_1_1500" style="mask-type:alpha" maskUnits="userSpaceOnUse" x="0" y="0" width="100" height="100">
<path fill-rule="evenodd" clip-rule="evenodd" d="M50 100C13.1946 100 0 86.8062 0 50C0 14.583 13.1946 0 50 0C86.8062 0 100 13.1946 100 50C100 86.8062 86.8062 100 50 100Z" fill="white"/>
</mask>
<g mask="url(#mask0_1_1500)">
<rect width="100" height="100" fill="white"/>
<rect width="100" height="100" fill="#552448"/>
<path d="M100 0H0V100H100V0Z" fill="#552448"/>
<path d="M49.9996 78.9982C34.0091 78.9982 21 65.9891 21 49.9986C21 34.0087 34.0091 21 49.9996 21C65.9901 21 79 34.0087 79 49.9986C79 65.9891 65.9901 78.9982 49.9996 78.9982ZM49.9996 22.4674C34.818 22.4674 22.4674 34.8177 22.4674 49.9986C22.4674 65.1802 34.818 77.5308 49.9996 77.5308C65.1812 77.5308 77.5325 65.1802 77.5325 49.9986C77.5325 34.8177 65.1812 22.4674 49.9996 22.4674Z" fill="white"/>
<path d="M71.2809 56.8248C71.7164 56.8248 72.0715 56.4705 72.0715 56.0325C72.0715 55.597 71.7164 55.2427 71.2809 55.2427C70.8421 55.2427 70.4878 55.597 70.4878 56.0325C70.4878 56.4705 70.8421 56.8248 71.2809 56.8248Z" fill="white"/>
<path d="M28.7228 56.8253C29.1592 56.8253 29.5135 56.4709 29.5135 56.0338C29.5135 55.5967 29.1592 55.2432 28.7228 55.2432C28.2857 55.2432 27.9314 55.5967 27.9314 56.0338C27.9314 56.4709 28.2857 56.8253 28.7228 56.8253Z" fill="white"/>
<path d="M28.6775 48.1721C28.3104 48.1626 27.9983 48.4038 27.9434 48.7231C27.8908 48.4413 27.644 48.2039 27.2753 48.1944C26.8812 48.1849 26.5141 48.4643 26.5014 49.0273L26.4616 50.5847L29.4204 50.6588L29.461 49.0543C29.4754 48.4842 29.1282 48.1841 28.6775 48.1721ZM27.6528 49.9851L27.0309 49.9684L27.0516 49.1793C27.0564 48.9676 27.1886 48.8362 27.3709 48.8409C27.562 48.8458 27.6774 48.9819 27.6727 49.1953L27.6528 49.9851ZM28.8814 50.0154L28.2078 49.9978L28.2284 49.1818C28.2332 48.9381 28.3885 48.8083 28.5748 48.8147C28.7874 48.8187 28.906 48.9644 28.9021 49.1993L28.8814 50.0154Z" fill="white"/>
<path d="M29.6871 46.6757L26.7912 46.0562L27.23 44.0083L27.7714 44.1238L27.4656 45.557L28.074 45.6867L28.3749 44.2854L28.9148 44.4001L28.6154 45.8038L29.2763 45.944L29.5828 44.5115L30.1243 44.6278L29.6871 46.6757Z" fill="white"/>
<path d="M31.2366 41.5841L31.5177 40.9128L30.2182 41.096C30.2716 40.7727 30.137 40.3547 29.6601 40.1548C29.1505 39.943 28.6322 40.1397 28.3933 40.7082L27.859 41.9853L30.5901 43.128L30.8321 42.5467L29.8639 42.1406L30.0414 41.7146L31.2366 41.5841ZM29.6075 41.3125L29.3511 41.9264L28.613 41.6175L28.8718 41.0036C28.9673 40.7743 29.1807 40.6565 29.4037 40.7512C29.637 40.8491 29.7031 41.0824 29.6075 41.3125Z" fill="white"/>
<path d="M33.2025 38.1386L31.716 38.2286L31.8219 38.5757L32.5791 39.0774L32.2319 39.6037L29.7628 37.969L30.11 37.4435L31.2111 38.1712L30.688 36.57L31.1172 35.9219L31.6275 37.6696L33.6309 37.4889L33.2025 38.1386Z" fill="white"/>
<path d="M34.0227 36.3604L33.9064 35.7697C34.2082 35.7697 34.5665 35.6669 34.8507 35.3723C35.0928 35.1183 35.0952 34.8922 34.9686 34.7736C34.5992 34.4153 33.6787 35.8939 32.8737 35.1232C32.5194 34.7816 32.5194 34.1907 33.0019 33.6875C33.3292 33.3491 33.701 33.166 34.1007 33.1421L34.1971 33.721C33.8706 33.7393 33.576 33.8993 33.365 34.1175C33.1803 34.3086 33.1596 34.4973 33.2878 34.6215C33.6238 34.9431 34.5737 33.4996 35.3715 34.2648C35.7617 34.6414 35.784 35.2051 35.237 35.7776C34.8388 36.1909 34.4176 36.3525 34.0227 36.3604Z" fill="white"/>
<path d="M38.7771 32.7614L38.0596 31.7406L36.917 32.5449L37.6321 33.5648L37.1185 33.9264L35.4169 31.5041L35.9329 31.1419L36.6001 32.0934L37.7443 31.29L37.0778 30.3393L37.5954 29.9746L39.2954 32.3975L38.7771 32.7614Z" fill="white"/>
<path d="M40.0444 28.6883L39.4786 28.9624L40.7686 31.6253L41.3344 31.3512L40.0444 28.6883Z" fill="white"/>
<path d="M44.1675 29.1013C44.4518 28.9356 44.6842 28.5654 44.5314 28.0694C44.369 27.543 43.8864 27.2707 43.2972 27.4531L41.9723 27.8615L42.8473 30.689L43.4485 30.5019L43.1372 29.4986L43.5807 29.3616L44.4446 30.1953L45.1405 29.9803L44.1675 29.1013ZM43.6109 28.7708L42.9755 28.9675L42.7407 28.2047L43.376 28.0089C43.6133 27.9348 43.8387 28.0224 43.9127 28.2565C43.9876 28.4985 43.8482 28.6984 43.6109 28.7708Z" fill="white"/>
<path d="M46.6142 29.6955L46.271 26.7534L48.3524 26.5098L48.4161 27.0623L46.9614 27.2319L47.0331 27.8498L48.4575 27.6826L48.522 28.2344L47.0983 28.4016L47.1764 29.072L48.6319 28.9L48.6948 29.4518L46.6142 29.6955Z" fill="white"/>
<path d="M54.4244 29.9008L54.6506 28.6738L53.2747 28.423L53.0518 29.6493L52.4307 29.5346L52.965 26.6235L53.586 26.7382L53.375 27.8824L54.7485 28.134L54.9587 26.9914L55.5846 27.1036L55.0503 30.0155L54.4244 29.9008Z" fill="white"/>
<path d="M58.1689 28L56 30.3146L56.6609 30.5838L57.0239 30.188L58.1976 30.6642L58.1841 31.2L58.8473 31.4692L58.8998 28.2962L58.1689 28ZM58.2485 30.0854L57.3918 29.739L58.2987 28.7325L58.2485 30.0854Z" fill="white"/>
<path d="M60.5899 32.3603L61.8575 30.3188L61.1241 29.861L61.4164 29.3896L63.422 30.6365L63.1274 31.1079L62.3965 30.6532L61.1289 32.6948L60.5899 32.3603Z" fill="white"/>
<path d="M64.4523 35.3423L65.2979 34.4227L64.2676 33.4768L63.4219 34.3972L62.9585 33.9689L64.9626 31.7896L65.4253 32.2155L64.6394 33.0715L65.6697 34.0182L66.4556 33.1615L66.9238 33.5914L64.9205 35.7715L64.4523 35.3423Z" fill="white"/>
<path d="M68.8643 35.9209L65.7971 36.7299L66.216 37.3088L66.732 37.167L67.4749 38.1958L67.1778 38.6401L67.5967 39.2189L69.3277 36.5603L68.8643 35.9209ZM67.822 37.73L67.283 36.9823L68.5848 36.6097L67.822 37.73Z" fill="white"/>
<path d="M69.0896 42.2807L70.7458 40.9923L68.6756 41.3323L68.4088 40.7169L70.7848 38.7573L71.0675 39.4047L69.3109 40.7344L71.499 40.3976L71.6957 40.8506L69.9575 42.2177L72.1288 41.8404L72.4091 42.4877L69.3539 42.8961L69.0896 42.2807Z" fill="white"/>
<path d="M73.0159 45.0284L69.8914 44.4854L70.0316 45.1852L70.5587 45.2704L70.8032 46.5157L70.3485 46.7953L70.4854 47.4975L73.1696 45.8039L73.0159 45.0284ZM71.3143 46.2386L71.1344 45.3325L72.4736 45.5396L71.3143 46.2386Z" fill="white"/>
<path d="M70.573 49.3041L71.7857 49.2786L73.5095 48.1089L73.5239 48.8271L72.3542 49.5827L73.5533 50.2914L73.5669 51.0056L71.796 49.9084L70.5858 49.9331L70.573 49.3041Z" fill="white"/>
<path d="M30.6586 63.5024L31.7024 62.8193L30.9349 61.6496L29.8902 62.3328L29.5455 61.8056L32.0226 60.1821L32.3689 60.7116L31.3959 61.3486L32.1619 62.5175L33.1349 61.8813L33.4844 62.4124L31.005 64.0351L30.6586 63.5024Z" fill="white"/>
<path d="M35.4392 64.5304C34.8086 63.8943 33.8953 63.8839 33.2623 64.5145C32.6293 65.1451 32.6364 66.0584 33.2694 66.693C33.9 67.326 34.8133 67.3364 35.4439 66.7074C36.0761 66.0767 36.069 65.1635 35.4392 64.5304ZM34.9901 66.2479C34.5967 66.6356 34.053 66.6851 33.6668 66.2981C33.279 65.9087 33.3291 65.3625 33.7193 64.974C34.1126 64.5822 34.6564 64.5352 35.045 64.9245C35.4304 65.3123 35.3826 65.857 34.9901 66.2479Z" fill="white"/>
<path d="M38.0866 70.3795L39.2427 68.5848L37.3835 69.928L37.1526 69.78L37.6073 67.5338L36.4519 69.3292L35.9216 68.9877L37.5229 66.4971L38.265 66.9748L37.8708 68.9216L39.476 67.7544L40.2221 68.2344L38.6217 70.7235L38.0866 70.3795Z" fill="white"/>
<path d="M40.5128 71.6217L41.5885 68.8628L43.5416 69.624L43.341 70.1416L41.9747 69.6089L41.7485 70.1877L43.0854 70.7084L42.8847 71.2252L41.5479 70.7061L41.3034 71.3328L42.6666 71.8662L42.4659 72.3822L40.5128 71.6217Z" fill="white"/>
<path d="M44.2726 72.4874L44.7089 72.071C44.8714 72.3258 45.1524 72.5702 45.5545 72.6514C45.8969 72.7184 46.0888 72.5989 46.123 72.4278C46.2209 71.9229 44.4812 71.946 44.6946 70.8528C44.7917 70.3694 45.2869 70.0518 45.9718 70.1855C46.4343 70.2755 46.7911 70.4913 47.0236 70.8138L46.5896 71.2079C46.3977 70.9435 46.1031 70.7811 45.8085 70.7238C45.5449 70.6712 45.3769 70.7556 45.3419 70.9308C45.2503 71.3879 46.9806 71.4069 46.7648 72.4914C46.6621 73.0233 46.1986 73.3474 45.42 73.1937C44.8578 73.0838 44.4947 72.8163 44.2726 72.4874Z" fill="white"/>
<path d="M48.471 73.5477L48.5674 70.5889L50.6623 70.6566L50.6431 71.2123L49.1789 71.1646L49.159 71.7856L50.5922 71.831L50.5731 72.3852L49.1407 72.3398L49.1207 73.0134L50.5826 73.0604L50.5659 73.6162L48.471 73.5477Z" fill="white"/>
<path d="M54.1546 72.0837C54.4587 71.9603 54.7414 71.6258 54.6594 71.1131C54.5734 70.5684 54.1323 70.2316 53.5239 70.3272L52.1552 70.5461L52.6226 73.4707L53.2429 73.3719L53.0781 72.332L53.5335 72.2596L54.274 73.2071L54.993 73.0933L54.1546 72.0837ZM53.6482 71.6792L52.9896 71.7835L52.8671 70.9952L53.5216 70.8909C53.7684 70.8511 53.9809 70.9697 54.02 71.2102C54.0582 71.4602 53.895 71.6394 53.6482 71.6792Z" fill="white"/>
<path d="M57.5474 72.3573L55.4796 69.9518L56.1508 69.7106L57.6891 71.5762L57.7002 69.1588L58.3723 68.9199L58.2927 72.0906L57.5474 72.3573Z" fill="white"/>
<path d="M59.9983 68.0487L59.443 68.3462L60.8404 70.9547L61.3957 70.6572L59.9983 68.0487Z" fill="white"/>
<path d="M62.0891 68.5634C61.5428 67.83 61.7252 66.9248 62.4418 66.3913C62.9609 66.0043 63.4745 66.0608 63.8631 66.2352L63.5892 66.7719C63.3447 66.6533 63.0183 66.6604 62.7754 66.8404C62.3415 67.1636 62.2762 67.7282 62.609 68.1764C62.9426 68.6255 63.5032 68.7234 63.9387 68.3994C64.1808 68.2194 64.2795 67.9073 64.2365 67.6398L64.8265 67.5275C64.8791 67.9479 64.7931 68.4615 64.2723 68.8485C63.5565 69.382 62.6313 69.2936 62.0891 68.5634Z" fill="white"/>
<path d="M66.5615 66.8253L64.3973 64.8044L65.8257 63.2725L66.2326 63.6515L65.2317 64.7216L65.6864 65.1476L66.6642 64.0966L67.0702 64.4748L66.0925 65.525L66.5838 65.9844L67.5846 64.9135L67.9891 65.2933L66.5615 66.8253Z" fill="white"/>
<path d="M68.7241 63.7038L68.5003 63.1449C68.7973 63.0899 69.1285 62.9204 69.3531 62.5772C69.545 62.2842 69.5028 62.0628 69.3587 61.968C68.9271 61.6878 68.2965 63.3082 67.3649 62.7014C66.9516 62.4315 66.8441 61.851 67.2256 61.2674C67.4819 60.8748 67.8124 60.624 68.2009 60.5269L68.4024 61.0778C68.0879 61.1575 67.8267 61.3693 67.6619 61.6217C67.5154 61.8455 67.5297 62.0334 67.6778 62.1305C68.0688 62.3853 68.7329 60.7912 69.6581 61.3964C70.1111 61.691 70.2409 62.242 69.807 62.9076C69.4948 63.3854 69.1111 63.6235 68.7241 63.7038Z" fill="white"/>
<path d="M46.1637 43.1262C47.0554 42.7822 47.8962 41.8817 47.8962 40.4963C47.8962 38.6824 46.5594 37.4634 44.5672 37.4634H39.7906V49.1728H44.689C46.7744 49.1728 48.1192 47.9147 48.1192 45.9664C48.1192 44.69 47.2728 43.4957 46.1637 43.1262ZM41.4269 38.9428H44.3275C45.4701 38.9428 46.2074 39.634 46.2074 40.7041C46.2074 41.7806 45.4876 42.4478 44.3275 42.4478H41.4269V38.9428ZM44.4119 47.6934H41.4269V43.9288H44.4119C45.8086 43.9288 46.4343 44.874 46.4343 45.8095C46.4343 46.9895 45.6771 47.6934 44.4119 47.6934Z" fill="white"/>
<path d="M60.3708 49.1728H58.7345V43.8962H52.6585V49.1728H51.0238V37.4634H52.6585V42.4144H58.7345V37.4634H60.3708V49.1728Z" fill="white"/>
<path d="M49.1384 63.1158H47.5029V57.8359H41.4269V63.1158H39.7906V51.4048H41.4269V56.3557H47.5029V51.4048H49.1384V63.1158Z" fill="white"/>
<path d="M56.0257 63.3226C54.192 63.3226 52.5963 62.661 51.5301 61.4587L51.4751 61.395L52.4665 60.125L52.5461 60.2198C52.9674 60.7063 54.1481 61.8393 56.0758 61.8393C57.998 61.8393 58.6819 60.8599 58.6819 59.9411C58.6819 58.656 57.3299 58.292 55.7621 57.8717C53.938 57.3788 51.8677 56.8222 51.8677 54.5251C51.8677 52.607 53.5788 51.2144 55.9389 51.2144C57.6221 51.2144 59.0569 51.7861 60.0849 52.8666L60.1462 52.9326L59.1509 54.1477L59.0712 54.0585C58.0767 52.9454 56.7518 52.7121 55.8178 52.7121C54.4865 52.7121 53.5565 53.4207 53.5565 54.4375C53.5565 55.4909 54.8034 55.8293 56.247 56.2218C58.1802 56.7458 60.3707 57.3414 60.3707 59.8383C60.3707 61.5224 59.2281 63.3226 56.0257 63.3226Z" fill="white"/>
</g>
</svg>
