<svg width="100" height="100" viewBox="0 0 100 100" fill="none" xmlns="http://www.w3.org/2000/svg">
<mask id="mask0_1_1509" style="mask-type:alpha" maskUnits="userSpaceOnUse" x="0" y="0" width="100" height="100">
<path fill-rule="evenodd" clip-rule="evenodd" d="M50 100C13.1946 100 0 86.8062 0 50C0 14.583 13.1946 0 50 0C86.8062 0 100 13.1946 100 50C100 86.8062 86.8062 100 50 100Z" fill="white"/>
</mask>
<g mask="url(#mask0_1_1509)">
<rect width="100" height="100" fill="white"/>
<path d="M100 0H0V100H100V0Z" fill="#7399C6"/>
<path d="M60.3375 30.7425V21.5557H52.2887C43.7169 21.5557 39.3425 28.9693 39.3425 35.8978C39.1682 42.829 41.4425 49.2726 49.14 50.0809C45.4656 51.0484 42.1425 53.4631 41.9682 57.3329C41.9682 61.8441 44.4169 63.1349 49.6657 65.873C53.3374 67.6462 55.9631 68.9344 56.1375 72.4808C56.1375 75.2189 54.5631 77.1538 51.24 77.1538C48.6143 77.1538 44.7656 75.7039 43.1912 67.3228H41.9682V78.4445H51.24C57.0118 78.4445 62.0889 75.0572 62.0889 69.5785C62.0889 63.9407 57.3631 62.3266 53.6887 60.3943C49.84 58.4594 47.74 57.6536 47.74 54.4305C47.74 52.0132 49.84 50.4017 52.64 50.5634C55.2631 50.5634 56.8401 52.1749 57.7118 53.6248C58.5888 55.0746 58.9375 56.3654 59.4632 58.1386H60.6862V35.0921H50.8913V36.2186C51.4144 36.3803 52.4657 36.3803 53.1631 36.7036C54.0401 37.1886 54.5631 38.1535 54.5631 39.765V44.1172C54.5631 45.4054 54.3861 47.3403 53.5144 48.3077C52.9887 48.9518 52.1144 49.2726 50.8887 49.2726C48.6143 49.2726 47.74 47.502 47.3913 46.3728C46.8656 43.9555 46.6913 40.5708 46.6913 36.0569C46.6913 31.2249 47.2169 27.1961 48.2656 25.2612C49.3143 23.6496 50.54 22.5231 52.64 22.6848C55.7888 22.8439 58.0631 26.2312 59.1118 30.7425H60.3375Z" fill="white"/>
</g>
</svg>
